<?xml version="1.0" encoding="utf-8"?>
<!-- Generator: Adobe Illustrator 19.2.0, SVG Export Plug-In . SVG Version: 6.00 Build 0)  -->
<svg version="1.1" id="Layer_1" xmlns="http://www.w3.org/2000/svg" xmlns:xlink="http://www.w3.org/1999/xlink" x="0px" y="0px"
	 viewBox="0 0 202.3 197.7" style="enable-background:new 0 0 202.3 197.7;" xml:space="preserve">
<style type="text/css">
	.st0{fill:#0078A9;}
	.st1{fill:#FFFFFF;}
</style>
<rect class="st0" width="201.2" height="197.7"/>
<g>
	<path class="st1" d="M52,98.1v-2.6l-1.2,2.6H40.2l-1.3-2.7v2.7H19.1l-2.3-5.5h-4l-2.5,5.5H0V81.4l7.5-17H22l2,4.8v-4.8h17.6
		l3.9,8.1l3.8-8.2H105c0,0,2.9,0,4.8,1.3l0-1.3h14v1.8c0,0,2.5-1.8,6.2-1.8c3.7,0,24.7,0,24.7,0l2.2,4.9v-4.9h15.9l2.9,4.9v-4.9
		h15.2v33.8h-15.6l-3.7-5.9v5.9h-19.4l-2.7-6h-3.8l-2.6,6h-11.7c0,0-4.4-0.1-7.6-2.4c0,1.2,0,2.4,0,2.4h-23.3c0,0,0-6.7,0-7.9
		c0-1.1-0.9-1.1-0.9-1.1h-0.9v8.9H52z"/>
	<path class="st1" d="M40.4,105.4H71l4.4,5l4.5-5h23.6c0,0,2.2,0.1,4.3,1.2v-1.2c0,0,18.3,0,21,0c2.7,0,4.9,1.3,4.9,1.3v-1.3h27v1.2
		c0,0,1.9-1.2,4.5-1.2c2.6,0,17.6,0,17.6,0v1.2c0,0,2.2-1.2,4.6-1.2c2.3,0,13.8,0,13.8,0v31.8c0,0-1.8,2.1-5.6,2.1h-18.2v-1
		c0,0-1.7,1-4.4,1c-2.6,0-48.3,0-48.3,0s0-7.4,0-8.2c0-0.8-0.4-1-1.1-1H123v9.2h-15.1v-9.1c0,0-1.7,0.9-4.5,0.9c-2.8,0-5.4,0-5.4,0
		v8.2H79.4l-4.2-5.2l-4.5,5.2H40.4V105.4z"/>
</g>
<g>
	<polygon class="st0" points="138,110.5 157.3,110.5 157.3,115.6 143.9,115.6 143.9,120.1 156.9,120.1 156.9,124.7 143.9,124.7 
		143.9,129.4 157.3,129.4 157.3,134.4 138,134.4 	"/>
	<path class="st0" d="M194.4,119.8c7.2,0.4,7.8,4,7.8,7.8c0,4.5-3.7,6.9-7.5,6.9h-12.4v-5.1h9.6c1.6,0,4.1,0,4.1-2.3
		c0-1.1-0.4-1.8-2.2-2c-0.8-0.1-3.6-0.3-4.1-0.3c-6.5-0.2-8.1-3.4-8.1-7.4c0-4.5,3.2-7,7-7h12.4v5.1h-9c-2.1,0-4.3-0.2-4.3,2.1
		c0,1.5,1.1,1.8,2.5,1.9C190.8,119.7,194,119.8,194.4,119.8z"/>
	<path class="st0" d="M172.3,119.8c7.2,0.4,7.8,4,7.8,7.8c0,4.5-3.7,6.9-7.5,6.9h-12.4v-5.1h9.6c1.6,0,4.1,0,4.1-2.3
		c0-1.1-0.4-1.8-2.2-2c-0.8-0.1-3.6-0.3-4.1-0.3c-6.5-0.2-8-3.4-8-7.4c0-4.5,3.2-7,7-7H179v5.1h-9c-2.1,0-4.3-0.2-4.3,2.1
		c0,1.5,1.1,1.8,2.5,1.9C168.7,119.7,171.9,119.8,172.3,119.8z"/>
	<path class="st0" d="M102.5,110.5H81.9l-6.7,7.4l-6.5-7.5H45.4v24h22.4l7.1-7.9l6.9,8h11.3v-8.1h7.9c3.1,0,8.6-0.1,8.6-8.5
		C109.6,111.9,105.4,110.5,102.5,110.5z M64.8,129.4H51.2v-4.7h13v-4.5h-13v-4.5l14.3,0l5.7,6.5L64.8,129.4z M87.3,132.2l-8.5-10
		l8.5-9.4V132.2z M100.6,121.4h-7.3v-5.8h7.4c2.5,0,3.2,1.6,3.2,2.8C103.8,120,103,121.4,100.6,121.4z"/>
	<path class="st0" d="M131,123.6c3.2-1.6,4.1-3.7,4.1-6.6c0-5.1-4.2-6.4-7.1-6.4h-15.3v24h5.9V126h7.7c2,0,2.8,2,2.9,4.1l0.2,4.4
		h5.7l-0.2-4.9C134.8,125.7,133.7,123.9,131,123.6z M125.9,121.1h-7.3v-5.4h7.4c2.5,0,3.2,1.6,3.2,2.8
		C129.1,120,128.3,121.1,125.9,121.1z"/>
</g>
<g>
	<rect x="114" y="69.1" class="st0" width="5.9" height="24"/>
	<polygon class="st0" points="65.8,69.1 85,69.1 85,74.3 71.7,74.3 71.7,78.8 84.7,78.8 84.7,83.3 71.7,83.3 71.7,88.1 85,88.1 
		85,93.1 65.8,93.1 	"/>
	<path class="st0" d="M106.8,82.2c3.2-1.6,4.1-3.7,4.1-6.6c0-5.1-4.2-6.4-7.1-6.4H88.5v24h5.9v-8.5h7.7c2,0,2.8,2,2.9,4.1l0.2,4.4
		h5.7l-0.2-4.9C110.7,84.3,109.6,82.5,106.8,82.2z M101.7,79.7h-7.3v-5.4h7.4c2.5,0,3.2,1.6,3.2,2.8C105,78.6,104.1,79.7,101.7,79.7
		z"/>
	<path class="st0" d="M52.2,69.1L45,85.2l-7.2-16.1h-9.2v23.1L18.3,69.1h-7.8l-10.5,24h6.2l2.3-5.4h11.7l2.3,5.4h11.8V75.3l7.9,17.8
		h5.4l8-17.5v17.5h5.9v-24H52.2z M10.8,82.6l3.5-8.4l3.7,8.4H10.8z"/>
	<path class="st0" d="M180.6,69.1v16.6l-9.9-16.6h-8.7v22.5l-10-22.5h-7.8L136,87.7c0,0-3.4,0-3.8-0.1c-1.4-0.3-3.6-1.3-3.7-5.5
		v-1.7c0-5.6,3-6,7-6h3.6v-5.2h-7.7c-2.7,0-8.5,2-8.7,11.9c-0.1,6.6,2.8,12.1,9.3,12.1h7.8l2.3-5.4h11.7l2.3,5.4h11.6V75.6
		l10.6,17.5h8v-24H180.6z M144.4,82.6l3.5-8.4l3.7,8.4H144.4z"/>
</g>
</svg>
