<?xml version="1.0" encoding="utf-8"?>
<!-- Generator: Adobe Illustrator 19.2.0, SVG Export Plug-In . SVG Version: 6.00 Build 0)  -->
<svg version="1.1" id="Layer_1" xmlns="http://www.w3.org/2000/svg" xmlns:xlink="http://www.w3.org/1999/xlink" x="0px" y="0px"
	 viewBox="0 0 254.8 153" style="enable-background:new 0 0 254.8 153;" xml:space="preserve">
<style type="text/css">
	.st0{fill:#ED1B2E;}
	.st1{fill:#0084C5;}
	.st2{fill:#FFFFFF;}
	.st3{fill:none;stroke:#FFFFFF;stroke-width:0.215;}
</style>
<g>
	<polygon class="st0" points="178.1,153 182.1,152.9 186,152.6 189.8,152.1 193.6,151.5 197.3,150.6 200.9,149.6 204.5,148.4 
		208,147 211.4,145.5 214.7,143.8 217.9,141.9 221,139.9 224,137.8 226.9,135.5 229.7,133.1 232.3,130.6 234.8,127.9 237.3,125.1 
		239.6,122.2 241.7,119.2 243.7,116.1 245.5,112.9 247.2,109.6 248.8,106.2 250.1,102.7 251.3,99.2 252.3,95.5 253.2,91.8 253.9,88 
		254.4,84.2 254.7,80.3 254.8,76.4 254.7,72.4 254.4,68.6 253.9,64.8 253.2,61 252.3,57.3 251.3,53.7 250.1,50.2 248.8,46.7 
		247.2,43.3 245.5,40 243.7,36.8 241.7,33.7 239.6,30.7 237.3,27.8 234.8,25.1 232.3,22.4 229.7,19.9 226.9,17.5 224,15.2 221,13.1 
		217.9,11.1 214.7,9.3 211.4,7.5 208,6 204.5,4.7 200.9,3.4 197.3,2.4 193.6,1.6 189.8,0.9 186,0.4 182.1,0.1 178.1,0 174.2,0.1 
		170.3,0.4 166.5,0.9 162.7,1.6 159,2.4 155.3,3.4 151.8,4.7 148.3,6 144.9,7.5 141.6,9.3 138.4,11.1 135.3,13.1 132.3,15.2 
		129.4,17.5 126.7,19.9 124,22.4 121.5,25.1 119.1,27.8 116.8,30.7 114.7,33.7 112.7,36.8 110.8,40 109.2,43.3 107.6,46.7 
		106.3,50.2 105.1,53.7 104,57.3 103.2,61 102.5,64.8 102,68.6 101.7,72.4 101.6,76.4 101.7,80.3 102,84.2 102.5,88 103.2,91.8 
		104,95.5 105.1,99.2 106.3,102.7 107.6,106.2 109.2,109.6 110.8,112.9 112.7,116.1 114.7,119.2 116.8,122.2 119.1,125.1 
		121.5,127.9 124,130.6 126.7,133.1 129.4,135.5 132.3,137.8 135.3,139.9 138.4,141.9 141.6,143.8 144.9,145.5 148.3,147 
		151.8,148.4 155.3,149.6 159,150.6 162.7,151.5 166.5,152.1 170.3,152.6 174.2,152.9 	"/>
	<polygon class="st1" points="76.6,153 80.6,152.9 84.5,152.6 88.3,152.1 92.1,151.5 95.8,150.6 99.4,149.6 103,148.4 106.5,147 
		109.9,145.5 113.1,143.8 116.3,141.9 119.5,139.9 122.5,137.8 125.3,135.5 128.1,133.1 130.8,130.6 133.3,127.9 135.7,125.1 
		138,122.2 140.1,119.2 142.1,116.1 143.9,112.9 145.6,109.6 147.1,106.2 148.5,102.7 149.7,99.2 150.7,95.5 151.6,91.8 152.2,88 
		152.7,84.2 153,80.3 153.1,76.4 153,72.4 152.7,68.6 152.2,64.8 151.6,61 150.7,57.3 149.7,53.7 148.5,50.2 147.1,46.7 145.6,43.3 
		143.9,40 142.1,36.8 140.1,33.7 138,30.7 135.7,27.8 133.3,25.1 130.8,22.4 128.1,19.9 125.3,17.5 122.5,15.2 119.5,13.1 
		116.3,11.1 113.1,9.3 109.9,7.5 106.5,6 103,4.7 99.4,3.4 95.8,2.4 92.1,1.6 88.3,0.9 84.5,0.4 80.6,0.1 76.6,0 72.7,0.1 68.8,0.4 
		65,0.9 61.2,1.6 57.5,2.4 53.8,3.4 50.3,4.7 46.8,6 43.4,7.5 40.1,9.3 36.9,11.1 33.8,13.1 30.8,15.2 27.9,17.5 25.1,19.9 
		22.5,22.4 19.9,25.1 17.5,27.8 15.2,30.7 13.1,33.7 11.1,36.8 9.3,40 7.5,43.3 6,46.7 4.7,50.2 3.4,53.7 2.4,57.3 1.6,61 0.9,64.8 
		0.4,68.6 0.1,72.4 0,76.4 0.1,80.3 0.4,84.2 0.9,88 1.6,91.8 2.4,95.5 3.4,99.2 4.7,102.7 6,106.2 7.5,109.6 9.3,112.9 11.1,116.1 
		13.1,119.2 15.2,122.2 17.5,125.1 19.9,127.9 22.5,130.6 25.1,133.1 27.9,135.5 30.8,137.8 33.8,139.9 36.9,141.9 40.1,143.8 
		43.4,145.5 46.8,147 50.3,148.4 53.8,149.6 57.5,150.6 61.2,151.5 65,152.1 68.8,152.6 72.7,152.9 	"/>
	<polygon class="st0" points="118,29.1 156.7,29.1 156.7,24.9 121.7,24.9 	"/>
	<polygon class="st0" points="111.9,38.2 156.7,38.2 156.7,33.9 114.6,33.9 	"/>
	<polygon class="st0" points="107.3,47.4 156.7,47.4 156.7,43.1 109.4,43.1 	"/>
	<polygon class="st0" points="104.3,56.4 156.7,56.4 156.7,52.2 105.7,52.2 	"/>
	<polygon class="st0" points="102.4,65.5 156.7,65.5 156.7,61.3 103.2,61.3 	"/>
	<polygon class="st0" points="102,83.1 156.7,83.1 156.7,78.8 101.6,78.8 	"/>
	<polygon class="st0" points="103.3,92.7 156.7,92.7 156.7,88.4 102.5,88.4 	"/>
	<polygon class="st0" points="105.9,100.5 156.7,100.5 156.7,96.2 104.6,96.2 	"/>
	<polygon class="st0" points="109.8,109.9 156.7,109.9 156.7,105.6 107.7,105.6 	"/>
	<polygon class="st0" points="115.2,119.5 156.7,119.5 156.7,115.2 112.4,115.2 	"/>
	<polygon class="st0" points="122.1,128.7 156.4,128.7 156.4,124.4 118.3,124.4 	"/>
	<g>
		<g>
			<polygon class="st0" points="242.2,123.4 242.4,122.7 242.8,122.1 243.2,121.5 243.8,121 244.4,120.7 245.1,120.5 245.8,120.4 
				246.6,120.5 247.3,120.7 247.9,121 248.5,121.5 248.9,122.1 249.3,122.7 249.5,123.4 248.7,123.4 248.6,122.9 248.3,122.4 
				247.9,121.9 247.5,121.5 247,121.3 246.4,121.1 245.8,121 245.2,121.1 244.7,121.3 244.2,121.5 243.7,121.9 243.3,122.4 
				243.1,122.9 242.9,123.4 			"/>
			<polygon class="st0" points="244.5,123.4 244.5,122.5 246,122.5 246.3,122.5 246.6,122.5 246.8,122.6 247,122.7 247.2,122.8 
				247.3,123 247.4,123.1 247.4,123.4 246.7,123.4 246.7,123.4 246.7,123.2 246.7,123.1 246.6,123 246.5,123 246.4,122.9 
				246.2,122.9 246.1,122.9 246,122.9 245.2,122.9 245.2,123.4 			"/>
			<polygon class="st0" points="242.1,124 242.2,123.4 242.2,123.4 242.9,123.4 242.9,123.5 242.8,124 			"/>
			<polygon class="st0" points="244.5,124 244.5,123.4 245.2,123.4 245.2,123.9 245.8,123.9 246.1,123.9 246.3,123.9 246.4,123.9 
				246.5,123.8 246.6,123.8 246.7,123.7 246.7,123.5 246.7,123.4 247.4,123.4 247.4,123.4 247.4,123.6 247.3,123.8 247.2,123.9 
				247.2,124 			"/>
			<polygon class="st0" points="248.8,124 248.8,123.5 248.7,123.4 249.5,123.4 249.5,123.4 249.6,124 			"/>
			<polygon class="st0" points="242.1,124 242.1,124.1 242.2,124.9 242.4,125.6 242.8,126.2 243.2,126.8 243.8,127.2 244.4,127.5 
				245.1,127.7 245.8,127.8 246.6,127.7 247.3,127.5 247.9,127.2 248.5,126.8 248.9,126.2 249.3,125.6 249.5,124.9 249.6,124.1 
				249.6,124 248.8,124 248.8,124.1 248.8,124.8 248.6,125.4 248.3,125.9 247.9,126.4 247.5,126.8 247,127 246.4,127.2 245.8,127.3 
				245.2,127.2 244.7,127 244.2,126.8 243.7,126.4 243.3,125.9 243.1,125.4 242.9,124.8 242.8,124.1 242.8,124 			"/>
			<polygon class="st0" points="244.5,124 244.5,125.6 245.2,125.6 245.2,124.3 245.8,124.3 246.6,125.6 247.3,125.6 246.3,124.3 
				246.6,124.3 246.8,124.2 247,124.2 247.1,124.1 247.2,124 			"/>
		</g>
	</g>
	<polygon class="st2" points="161.6,69.9 161,69.9 160.5,69.9 160.1,69.8 159.6,69.7 159.2,69.7 158.7,69.6 158.3,69.5 157.8,69.4 
		157.2,69.4 156.7,69.3 156,69.3 155.4,69.2 154.6,69.2 153.8,69.3 152.9,69.3 151.8,69.4 151.1,69.5 150.4,69.7 149.8,69.9 
		149.3,70.1 148.8,70.4 148.3,70.7 147.9,71 147.6,71.4 147.4,71.8 147.2,72.2 147.2,72.6 147.2,73.1 147.3,73.5 147.4,74 
		147.7,74.5 148.1,75 148.8,75.6 149.7,76.2 150.7,76.6 151.7,77 152.9,77.4 154.1,77.7 155.3,78.2 156.4,78.7 157.5,79.3 158.5,80 
		159.4,80.9 160.2,82 160.8,83.4 161.2,85 161.3,86.9 161.2,89.2 160.9,90.9 160.4,92.4 159.8,93.7 159.1,94.9 158.3,96 157.3,96.9 
		156.3,97.7 155.2,98.4 154,98.9 152.8,99.4 151.6,99.7 150.4,100 149.1,100.2 147.9,100.4 146.8,100.4 145.6,100.5 144.1,100.5 
		142.7,100.4 141.4,100.4 140.2,100.4 139.1,100.3 138.2,100.3 137.3,100.2 136.5,100.1 135.7,100 135,99.9 134.3,99.7 133.7,99.6 
		133.1,99.4 132.5,99.2 131.9,99 131.3,98.8 132.8,90.9 133.2,90.9 133.6,91.1 134.1,91.2 134.7,91.3 135.4,91.5 136.1,91.7 
		136.9,91.8 137.8,92 138.7,92.1 139.7,92.2 140.6,92.3 141.7,92.4 142.7,92.5 143.8,92.5 144.8,92.5 145.9,92.4 146.9,92.3 
		147.7,92 148.4,91.6 148.9,91.1 149.2,90.6 149.5,90 149.7,89.5 149.9,88.9 150,88.4 149.9,87.9 149.8,87.4 149.6,87 149.3,86.6 
		149,86.2 148.6,85.9 148.1,85.6 147.5,85.3 147,85 146.3,84.8 145.7,84.5 145,84.3 144.3,84 143.6,83.7 142.9,83.4 142.2,83.1 
		141.5,82.8 140.8,82.4 140.1,82 139.5,81.6 138.8,81.1 138.3,80.5 137.7,80 137.3,79.3 136.8,78.6 136.5,77.8 136.2,77 136,76.1 
		135.9,75.1 135.8,73.9 135.9,72.8 136,72 136.1,71.3 136.2,70.7 136.3,70 136.5,69.4 136.7,68.7 136.9,68.2 137.1,67.6 137.4,67.1 
		137.7,66.5 138,66.1 138.3,65.6 138.7,65.1 139.1,64.7 139.6,64.3 140,63.9 140.5,63.6 141.1,63.2 141.6,62.9 142.2,62.6 
		142.9,62.4 143.5,62.1 144.3,61.9 145,61.7 145.8,61.6 146.6,61.4 147.5,61.3 148.4,61.2 149.4,61.1 150.4,61.1 151.4,61 152.5,61 
		153.8,61 155,61 156.1,61.1 157.1,61.1 158,61.2 158.8,61.2 159.5,61.3 160.1,61.3 160.7,61.4 161.2,61.5 161.7,61.5 162.1,61.6 
		162.5,61.7 162.8,61.7 163.1,61.8 163.4,61.8 	"/>
	<g>
		<g>
			<polyline class="st3" points="161.6,69.9 161.6,69.9 161,69.9 160.5,69.9 160.1,69.8 159.6,69.7 159.2,69.7 158.7,69.6 
				158.3,69.5 157.8,69.4 157.2,69.4 156.7,69.3 156,69.3 155.4,69.2 154.6,69.2 153.8,69.3 152.9,69.3 151.8,69.4 151.8,69.4 
				151.1,69.5 150.4,69.7 149.8,69.9 149.3,70.1 148.8,70.4 148.3,70.7 147.9,71 147.6,71.4 147.4,71.8 147.2,72.2 147.2,72.6 
				147.2,73.1 147.3,73.5 147.4,74 147.7,74.5 148.1,75 148.1,75 148.8,75.6 149.7,76.2 150.7,76.6 151.7,77 152.9,77.4 154.1,77.7 
				155.3,78.2 156.4,78.7 157.5,79.3 158.5,80 159.4,80.9 160.2,82 160.8,83.4 161.2,85 161.3,86.9 161.2,89.2 161.2,89.2 
				160.9,90.9 160.4,92.4 159.8,93.7 159.1,94.9 158.3,96 157.3,96.9 156.3,97.7 155.2,98.4 154,98.9 152.8,99.4 151.6,99.7 
				150.4,100 149.1,100.2 147.9,100.4 146.8,100.4 145.6,100.5 145.6,100.5 144.1,100.5 142.7,100.4 141.4,100.4 140.2,100.4 
				139.1,100.3 138.2,100.3 137.3,100.2 136.5,100.1 135.7,100 135,99.9 134.3,99.7 133.7,99.6 133.1,99.4 132.5,99.2 131.9,99 
				131.3,98.8 132.8,90.9 132.8,90.9 133.2,90.9 133.6,91.1 134.1,91.2 134.7,91.3 135.4,91.5 136.1,91.7 136.9,91.8 137.8,92 
				138.7,92.1 139.7,92.2 140.6,92.3 141.7,92.4 142.7,92.5 143.8,92.5 144.8,92.5 145.9,92.4 145.9,92.4 146.9,92.3 147.7,92 
				148.4,91.6 148.9,91.1 149.2,90.6 149.5,90 149.7,89.5 149.9,88.9 149.9,88.9 150,88.4 149.9,87.9 149.8,87.4 149.6,87 
				149.3,86.6 149,86.2 148.6,85.9 148.1,85.6 147.5,85.3 147,85 146.3,84.8 145.7,84.5 145,84.3 144.3,84 143.6,83.7 142.9,83.4 
				142.2,83.1 141.5,82.8 140.8,82.4 140.1,82 139.5,81.6 138.8,81.1 138.3,80.5 137.7,80 137.3,79.3 136.8,78.6 136.5,77.8 
				136.2,77 136,76.1 135.9,75.1 135.8,73.9 135.9,72.8 135.9,72.8 136,72 136.1,71.3 136.2,70.7 136.3,70 136.5,69.4 136.7,68.7 
				136.9,68.2 137.1,67.6 137.4,67.1 137.7,66.5 138,66.1 138.3,65.6 138.7,65.1 139.1,64.7 139.6,64.3 140,63.9 140.5,63.6 
				141.1,63.2 141.6,62.9 142.2,62.6 142.9,62.4 143.5,62.1 144.3,61.9 145,61.7 145.8,61.6 146.6,61.4 147.5,61.3 148.4,61.2 
				149.4,61.1 150.4,61.1 151.4,61 152.5,61 152.5,61 153.8,61 155,61 156.1,61.1 157.1,61.1 158,61.2 158.8,61.2 159.5,61.3 
				160.1,61.3 160.7,61.4 161.2,61.5 161.7,61.5 162.1,61.6 162.5,61.7 162.8,61.7 163.1,61.8 163.4,61.8 161.6,69.9 			"/>
		</g>
	</g>
	<polygon class="st2" points="169.8,53.1 179.9,53.1 178.4,61.9 184.6,61.9 183.2,69.9 176.8,69.8 173.5,89.8 173.4,90.3 
		173.4,90.6 173.5,91 173.6,91.3 173.7,91.5 173.9,91.8 174.1,92 174.4,92.1 174.7,92.3 175,92.4 175.3,92.5 175.7,92.6 176.1,92.6 
		176.5,92.7 176.9,92.7 177.3,92.7 178.1,92.7 178.9,92.6 179.5,92.5 180.1,92.4 180.5,92.3 180.8,92.2 181,92.1 181.1,92 
		180.1,98.9 179.8,99 179.5,99.2 179.3,99.3 179,99.4 178.7,99.5 178.4,99.6 178.1,99.7 177.7,99.8 177.4,99.9 177,100 176.6,100.1 
		176.1,100.2 175.7,100.2 175.2,100.3 174.6,100.4 174,100.5 171.3,100.5 169.8,100.4 168.5,100.2 167.4,100 166.4,99.7 165.6,99.4 
		164.9,99 164.3,98.6 163.8,98.1 163.5,97.6 163.2,97 163,96.4 162.9,95.7 162.9,95 162.9,94.2 163,93.3 163.1,92.4 	"/>
	<g>
		<g>
			<polyline class="st3" points="169.8,53.1 179.9,53.1 178.4,61.9 184.6,61.9 183.2,69.9 176.8,69.8 173.5,89.8 173.5,89.8 
				173.4,90.3 173.4,90.6 173.5,91 173.6,91.3 173.7,91.5 173.9,91.8 174.1,92 174.4,92.1 174.7,92.3 175,92.4 175.3,92.5 
				175.7,92.6 176.1,92.6 176.5,92.7 176.9,92.7 177.3,92.7 177.3,92.7 178.1,92.7 178.9,92.6 179.5,92.5 180.1,92.4 180.5,92.3 
				180.8,92.2 181,92.1 181.1,92 180.1,98.9 180.1,98.9 179.8,99 179.5,99.2 179.3,99.3 179,99.4 178.7,99.5 178.4,99.6 178.1,99.7 
				177.7,99.8 177.4,99.9 177,100 176.6,100.1 176.1,100.2 175.7,100.2 175.2,100.3 174.6,100.4 174,100.5 171.3,100.5 171.3,100.5 
				169.8,100.4 168.5,100.2 167.4,100 166.4,99.7 165.6,99.4 164.9,99 164.3,98.6 163.8,98.1 163.5,97.6 163.2,97 163,96.4 
				162.9,95.7 162.9,95 162.9,94.2 163,93.3 163.1,92.4 169.8,53.1 			"/>
		</g>
	</g>
	<polygon class="st2" points="108.4,83.6 108.2,84.3 108.2,84.9 108.3,85.6 108.4,86.2 108.6,86.9 108.9,87.6 109.3,88.2 
		109.7,88.9 110.2,89.5 110.7,90 111.3,90.5 111.9,91 112.6,91.4 113.3,91.8 114.1,92 114.8,92.2 115.7,92.3 116.6,92.4 117.6,92.5 
		118.5,92.6 119.5,92.6 120.4,92.6 121.4,92.6 122.3,92.5 123.3,92.3 124.3,92.2 125.3,91.9 126.3,91.6 127.3,91.2 128.4,90.7 
		129.4,90.2 130.5,89.6 128.9,98.5 128.3,98.8 127.8,99.1 127.2,99.3 126.7,99.5 126.1,99.7 125.6,99.9 125,100 124.4,100.1 
		123.7,100.2 123,100.3 122.2,100.4 121.4,100.4 120.5,100.4 119.5,100.4 118.4,100.5 117.2,100.5 116.3,100.5 115.4,100.4 
		114.5,100.4 113.6,100.3 112.7,100.1 111.8,100 110.9,99.8 110,99.6 109.1,99.3 108.2,99 107.3,98.7 106.5,98.3 105.7,97.9 
		104.9,97.4 104.1,96.9 103.3,96.4 102.6,95.8 102,95.1 101.3,94.4 100.7,93.7 100.2,92.8 99.7,92 99.2,91 98.8,90.1 98.5,89 
		98.2,87.9 98,86.7 97.8,85.5 97.7,84.2 97.7,82.8 97.8,81.4 97.9,79.9 98,79.3 98,78.7 98.1,78.1 98.3,77.5 98.4,76.8 98.6,76.1 
		98.8,75.4 99,74.6 99.2,73.8 99.5,73.1 99.8,72.3 100.2,71.5 100.6,70.7 101,70 101.5,69.2 102,68.4 102.6,67.7 103.2,67 
		103.8,66.3 104.6,65.6 105.3,64.9 106.1,64.3 107,63.8 108,63.3 109,62.8 110.1,62.4 111.2,62 112.4,61.7 113.7,61.5 115,61.3 
		116.4,61.2 118,61.1 118.7,61.1 119.4,61.2 120.1,61.2 120.8,61.3 121.5,61.4 122.3,61.6 123,61.7 123.8,61.9 124.5,62.2 
		125.2,62.4 125.9,62.7 126.6,63.1 127.3,63.5 127.9,63.9 128.5,64.4 129.1,64.9 129.7,65.5 130.2,66.2 130.7,66.9 131.1,67.6 
		131.5,68.4 131.9,69.2 132.2,70.2 132.4,71.2 132.6,72.2 132.7,73.3 132.8,74.5 132.8,75.8 132.7,77.1 132.6,78.5 132.3,80 
		132,81.5 131.6,83.8 105.5,83.8 107.1,76.8 122.7,76.8 122.8,75.8 122.8,74.9 122.8,74.1 122.6,73.3 122.4,72.7 122.2,72 
		121.8,71.5 121.4,71 121,70.5 120.5,70.2 120,69.9 119.5,69.6 118.9,69.4 118.3,69.2 117.7,69.2 117,69.1 116.3,69.1 115.7,69.2 
		115,69.4 114.4,69.6 113.9,69.9 113.3,70.2 112.8,70.6 112.3,71 111.8,71.5 111.4,72 111.1,72.6 110.7,73.2 110.4,73.9 110.2,74.6 
		110,75.3 109.8,76.1 	"/>
	<g>
		<g>
			<polyline class="st3" points="108.4,83.6 108.4,83.6 108.2,84.3 108.2,84.9 108.3,85.6 108.4,86.2 108.6,86.9 108.9,87.6 
				109.3,88.2 109.7,88.9 110.2,89.5 110.7,90 111.3,90.5 111.9,91 112.6,91.4 113.3,91.8 114.1,92 114.8,92.2 114.8,92.2 
				115.7,92.3 116.6,92.4 117.6,92.5 118.5,92.6 119.5,92.6 120.4,92.6 121.4,92.6 122.3,92.5 123.3,92.3 124.3,92.2 125.3,91.9 
				126.3,91.6 127.3,91.2 128.4,90.7 129.4,90.2 130.5,89.6 128.9,98.5 128.9,98.5 128.3,98.8 127.8,99.1 127.2,99.3 126.7,99.5 
				126.1,99.7 125.6,99.9 125,100 124.4,100.1 123.7,100.2 123,100.3 122.2,100.4 121.4,100.4 120.5,100.4 119.5,100.4 118.4,100.5 
				117.2,100.5 117.2,100.5 116.3,100.5 115.4,100.4 114.5,100.4 113.6,100.3 112.7,100.1 111.8,100 110.9,99.8 110,99.6 
				109.1,99.3 108.2,99 107.3,98.7 106.5,98.3 105.7,97.9 104.9,97.4 104.1,96.9 103.3,96.4 102.6,95.8 102,95.1 101.3,94.4 
				100.7,93.7 100.2,92.8 99.7,92 99.2,91 98.8,90.1 98.5,89 98.2,87.9 98,86.7 97.8,85.5 97.7,84.2 97.7,82.8 97.8,81.4 97.9,79.9 
				97.9,79.9 98,79.3 98,78.7 98.1,78.1 98.3,77.5 98.4,76.8 98.6,76.1 98.8,75.4 99,74.6 99.2,73.8 99.5,73.1 99.8,72.3 
				100.2,71.5 100.6,70.7 101,70 101.5,69.2 102,68.4 102.6,67.7 103.2,67 103.8,66.3 104.6,65.6 105.3,64.9 106.1,64.3 107,63.8 
				108,63.3 109,62.8 110.1,62.4 111.2,62 112.4,61.7 113.7,61.5 115,61.3 116.4,61.2 118,61.1 118,61.1 118.7,61.1 119.4,61.2 
				120.1,61.2 120.8,61.3 121.5,61.4 122.3,61.6 123,61.7 123.8,61.9 124.5,62.2 125.2,62.4 125.9,62.7 126.6,63.1 127.3,63.5 
				127.9,63.9 128.5,64.4 129.1,64.9 129.7,65.5 130.2,66.2 130.7,66.9 131.1,67.6 131.5,68.4 131.9,69.2 132.2,70.2 132.4,71.2 
				132.6,72.2 132.7,73.3 132.8,74.5 132.8,75.8 132.7,77.1 132.6,78.5 132.3,80 132,81.5 131.6,83.8 105.5,83.8 107.1,76.8 
				122.7,76.8 122.7,76.8 122.8,75.8 122.8,74.9 122.8,74.1 122.6,73.3 122.4,72.7 122.2,72 121.8,71.5 121.4,71 121,70.5 
				120.5,70.2 120,69.9 119.5,69.6 118.9,69.4 118.3,69.2 117.7,69.2 117,69.1 117,69.1 116.3,69.1 115.7,69.2 115,69.4 114.4,69.6 
				113.9,69.9 113.3,70.2 112.8,70.6 112.3,71 111.8,71.5 111.4,72 111.1,72.6 110.7,73.2 110.4,73.9 110.2,74.6 110,75.3 
				109.8,76.1 108.4,83.6 			"/>
		</g>
	</g>
	<polygon class="st2" points="94.4,92.4 93,100.5 83.9,100.5 84,99.7 84.1,98.9 84.2,98.3 84.3,97.6 84.4,97.1 84.5,96.7 84.6,96.4 
		84.7,96.2 84.2,96.7 83.6,97.3 82.9,97.8 82.1,98.3 81.3,98.8 80.4,99.2 79.4,99.6 78.5,100 77.4,100.4 76.4,100.6 75.3,100.8 
		74.3,101 73.2,101.1 72.2,101.1 71.2,101 70.2,100.9 68.9,100.6 67.8,100.2 66.7,99.7 65.8,99.1 65,98.6 64.3,97.9 63.7,97.2 
		63.2,96.5 62.8,95.7 62.5,94.9 62.2,94.1 62,93.3 61.8,92.5 61.7,91.7 61.7,90.9 61.6,90.1 61.7,88.7 62,87.4 62.3,86.1 62.8,84.9 
		63.3,83.7 64,82.7 64.8,81.7 65.6,80.8 66.5,79.9 67.5,79.2 68.6,78.5 69.7,77.9 70.8,77.4 72,77 73.2,76.7 74.5,76.5 74.5,76.5 
		74.7,76.5 75,76.5 75.3,76.4 75.8,76.4 76.3,76.3 76.8,76.2 77.4,76.2 78,76.1 78.6,76.1 79.3,76 79.9,76 80.4,75.9 80.9,75.9 
		81.4,75.9 81.8,75.9 82.2,75.9 82.7,75.9 83.1,75.9 83.6,75.9 84,75.9 84.4,75.9 84.8,75.9 85.2,75.9 85.5,75.9 85.9,75.9 86.1,76 
		86.4,76 86.6,76 86.7,76 86.8,76 86.9,76 86.9,75.7 87.1,75.1 87.3,74.4 87.3,73.8 87.2,73.3 87.1,72.9 87,72.5 86.8,72.1 
		86.6,71.8 86.4,71.5 86.1,71.2 85.8,70.9 85.5,70.6 85.2,70.4 84.8,70.2 84.4,70 84,69.9 83.6,69.8 83.2,69.7 82.7,69.7 81.7,69.7 
		80.6,69.7 79.5,69.7 78.3,69.8 77.2,69.9 76,70 74.9,70.1 73.7,70.2 72.6,70.4 71.6,70.5 70.7,70.7 69.8,70.9 69,71.1 68.4,71.3 
		67.8,71.5 67.5,71.7 70.1,63.2 70.8,62.8 71.6,62.5 72.4,62.2 73.3,62 74.2,61.8 75.1,61.7 76,61.6 77,61.5 78,61.4 79,61.4 
		80.1,61.3 81.2,61.3 82.3,61.3 83.5,61.3 84.7,61.4 86,61.4 87,61.5 88.1,61.6 89.2,61.9 90.3,62.2 91.5,62.7 92.6,63.2 93.7,63.8 
		94.7,64.5 95.6,65.3 96.4,66.2 97.1,67.2 97.7,68.2 98.1,69.4 98.3,70.7 98.3,72.1 98.1,73.5 	"/>
	<g>
		<g>
			<polyline class="st3" points="94.4,92.4 93,100.5 83.9,100.5 83.9,100.5 84,99.7 84.1,98.9 84.2,98.3 84.3,97.6 84.4,97.1 
				84.5,96.7 84.6,96.4 84.7,96.2 84.7,96.2 84.2,96.7 83.6,97.3 82.9,97.8 82.1,98.3 81.3,98.8 80.4,99.2 79.4,99.6 78.5,100 
				77.4,100.4 76.4,100.6 75.3,100.8 74.3,101 73.2,101.1 72.2,101.1 71.2,101 70.2,100.9 70.2,100.9 68.9,100.6 67.8,100.2 
				66.7,99.7 65.8,99.1 65,98.6 64.3,97.9 63.7,97.2 63.2,96.5 62.8,95.7 62.5,94.9 62.2,94.1 62,93.3 61.8,92.5 61.7,91.7 
				61.7,90.9 61.6,90.1 61.6,90.1 61.7,88.7 62,87.4 62.3,86.1 62.8,84.9 63.3,83.7 64,82.7 64.8,81.7 65.6,80.8 66.5,79.9 
				67.5,79.2 68.6,78.5 69.7,77.9 70.8,77.4 72,77 73.2,76.7 74.5,76.5 74.5,76.5 74.5,76.5 74.7,76.5 75,76.5 75.3,76.4 75.8,76.4 
				76.3,76.3 76.8,76.2 77.4,76.2 78,76.1 78.6,76.1 79.3,76 79.9,76 80.4,75.9 80.9,75.9 81.4,75.9 81.8,75.9 81.8,75.9 82.2,75.9 
				82.7,75.9 83.1,75.9 83.6,75.9 84,75.9 84.4,75.9 84.8,75.9 85.2,75.9 85.5,75.9 85.9,75.9 86.1,76 86.4,76 86.6,76 86.7,76 
				86.8,76 86.9,76 86.9,76 86.9,75.7 87.1,75.1 87.3,74.4 87.3,73.8 87.3,73.8 87.2,73.3 87.1,72.9 87,72.5 86.8,72.1 86.6,71.8 
				86.4,71.5 86.1,71.2 85.8,70.9 85.5,70.6 85.2,70.4 84.8,70.2 84.4,70 84,69.9 83.6,69.8 83.2,69.7 82.7,69.7 82.7,69.7 
				81.7,69.7 80.6,69.7 79.5,69.7 78.3,69.8 77.2,69.9 76,70 74.9,70.1 73.7,70.2 72.6,70.4 71.6,70.5 70.7,70.7 69.8,70.9 69,71.1 
				68.4,71.3 67.8,71.5 67.5,71.7 70.1,63.2 70.1,63.2 70.8,62.8 71.6,62.5 72.4,62.2 73.3,62 74.2,61.8 75.1,61.7 76,61.6 77,61.5 
				78,61.4 79,61.4 80.1,61.3 81.2,61.3 82.3,61.3 83.5,61.3 84.7,61.4 86,61.4 86,61.4 87,61.5 88.1,61.6 89.2,61.9 90.3,62.2 
				91.5,62.7 92.6,63.2 93.7,63.8 94.7,64.5 95.6,65.3 96.4,66.2 97.1,67.2 97.7,68.2 98.1,69.4 98.3,70.7 98.3,72.1 98.1,73.5 
				94.4,92.4 			"/>
		</g>
	</g>
	<polygon class="st1" points="85.7,83 85.7,82.8 85.5,82.6 85.3,82.5 85,82.4 84.5,82.4 84.1,82.3 83.6,82.3 83,82.3 82.4,82.4 
		81.8,82.5 81.2,82.5 80.7,82.6 80.1,82.8 79.6,82.9 79.1,83 78.7,83.1 78.5,83.2 78.2,83.3 77.8,83.4 77.4,83.6 77,83.7 76.5,84 
		76,84.2 75.6,84.5 75.1,84.9 74.6,85.2 74.2,85.6 73.8,86.1 73.5,86.6 73.2,87.1 73,87.7 72.9,88.3 72.8,89.5 73,90.5 73.3,91.2 
		73.8,91.8 74.3,92.2 74.9,92.4 75.5,92.5 76.1,92.6 77.2,92.5 78.2,92.4 79.2,92.3 80,92 80.7,91.8 81.4,91.5 82,91.1 82.5,90.7 
		83,90.4 83.4,89.9 83.8,89.5 84.1,89.1 84.3,88.7 84.5,88.3 84.7,87.9 84.8,87.5 84.9,86.9 85.1,86.4 85.2,85.8 85.3,85.1 
		85.4,84.5 85.5,84 85.6,83.5 	"/>
	<polygon class="st2" points="18.5,100.5 8.7,100.5 16.9,53.1 34,53.1 35.7,81.3 47.4,53.1 65.1,53.1 56.8,100.5 47,100.5 53.2,65 
		52.8,65 38.2,100.5 27.2,100.5 27.1,99 26.9,95 26.5,89.4 26.2,83 25.8,76.6 25.4,70.9 25.2,66.7 25.1,65 25.1,65 25,65 24.9,65 
		24.8,65 24.7,65 24.6,65 24.6,65 24.7,65 	"/>
	<g>
		<g>
			<polyline class="st3" points="18.5,100.5 8.7,100.5 16.9,53.1 34,53.1 35.7,81.3 47.4,53.1 65.1,53.1 56.8,100.5 47,100.5 
				53.2,65 52.8,65 38.2,100.5 27.2,100.5 27.2,100.5 27.1,99 26.9,95 26.5,89.4 26.2,83 25.8,76.6 25.4,70.9 25.2,66.7 25.1,65 
				25.1,65 25.1,65 25,65 24.9,65 24.8,65 24.7,65 24.6,65 24.6,65 24.7,65 18.5,100.5 			"/>
		</g>
	</g>
	<polygon class="st2" points="182.8,100.5 193,100.5 193,100.5 196.5,80 196.7,79.2 196.8,78.4 197,77.6 197.3,76.9 197.6,76.2 
		197.9,75.5 198.3,74.9 198.8,74.2 199.4,73.7 200,73.2 200.8,72.7 201.7,72.3 202.7,72 203.8,71.7 205.1,71.6 206.5,71.5 
		206.6,71.5 206.8,71.5 207,71.5 207.2,71.5 207.3,71.6 207.5,71.6 207.6,71.6 207.6,71.6 207.7,71.5 207.8,71 207.9,70.4 
		208.1,69.5 208.3,68.6 208.6,67.6 208.9,66.6 209.3,65.7 209.6,64.9 209.9,64.3 210.3,63.6 210.6,63 210.9,62.4 211.2,62 
		211.3,61.7 211.4,61.6 211.3,61.6 211.2,61.6 211,61.6 210.8,61.5 210.5,61.5 210.2,61.4 210,61.4 209.7,61.4 208.6,61.5 
		207.6,61.6 206.7,61.8 205.8,62 205,62.3 204.3,62.6 203.6,63 202.9,63.5 202.3,63.9 201.7,64.5 201.2,65 200.7,65.6 200.1,66.3 
		199.6,66.9 199.1,67.6 198.6,68.4 199.7,61.9 189.5,61.8 182.8,100.5 	"/>
	<g>
		<g>
			<polyline class="st3" points="182.8,100.5 193,100.5 193,100.5 196.5,80 196.5,80 196.7,79.2 196.8,78.4 197,77.6 197.3,76.9 
				197.6,76.2 197.9,75.5 198.3,74.9 198.8,74.2 199.4,73.7 200,73.2 200.8,72.7 201.7,72.3 202.7,72 203.8,71.7 205.1,71.6 
				206.5,71.5 206.5,71.5 206.6,71.5 206.8,71.5 207,71.5 207.2,71.5 207.3,71.6 207.5,71.6 207.6,71.6 207.6,71.6 207.6,71.6 
				207.7,71.5 207.8,71 207.9,70.4 208.1,69.5 208.3,68.6 208.6,67.6 208.9,66.6 209.3,65.7 209.3,65.7 209.6,64.9 209.9,64.3 
				210.3,63.6 210.6,63 210.9,62.4 211.2,62 211.3,61.7 211.4,61.6 211.4,61.6 211.3,61.6 211.2,61.6 211,61.6 210.8,61.5 
				210.5,61.5 210.2,61.4 210,61.4 209.7,61.4 209.7,61.4 208.6,61.5 207.6,61.6 206.7,61.8 205.8,62 205,62.3 204.3,62.6 203.6,63 
				202.9,63.5 202.3,63.9 201.7,64.5 201.2,65 200.7,65.6 200.1,66.3 199.6,66.9 199.1,67.6 198.6,68.4 199.7,61.9 189.5,61.8 
				182.8,100.5 182.8,100.5 			"/>
		</g>
	</g>
	<polygon class="st2" points="227.1,61.4 228.2,61.4 229.3,61.5 230.4,61.6 231.4,61.7 232.4,61.9 233.4,62.2 234.3,62.5 
		235.3,62.8 236.2,63.2 237,63.6 237.8,64 238.6,64.5 239.3,65 240,65.6 240.7,66.1 241.3,66.8 241.9,67.4 242.5,68.1 243,68.8 
		243.4,69.6 243.9,70.4 244.3,71.2 244.7,72 245,72.9 245.2,73.8 245.5,74.7 245.7,75.7 245.8,76.6 245.9,77.6 246,78.7 246,79.7 
		246,80.8 245.9,82 245.7,83.3 245.6,84.5 245.3,85.6 245.1,86.7 244.8,87.8 244.4,88.8 244,89.8 243.6,90.7 243.1,91.6 242.6,92.5 
		242.1,93.3 241.5,94.1 240.9,94.8 240.2,95.5 239.5,96.1 238.8,96.7 238.1,97.3 237.3,97.8 236.5,98.3 235.7,98.8 234.8,99.2 
		234,99.5 233.1,99.9 232.2,100.2 231.2,100.4 230.3,100.6 229.3,100.8 228.3,100.9 227.3,101 226.3,101.1 225.2,101.1 224.2,101.1 
		223.2,101 222.2,100.9 221.2,100.8 220.3,100.6 219.3,100.4 218.4,100.2 217.5,99.8 216.6,99.5 215.8,99.1 215,98.7 214.2,98.3 
		213.5,97.8 212.8,97.3 212.1,96.7 211.4,96.1 210.8,95.5 210.2,94.8 209.7,94.1 209.2,93.4 208.7,92.6 208.2,91.8 207.9,90.9 
		207.5,90 207.2,89.1 206.9,88.1 206.7,87.1 206.5,86.1 206.4,85 206.3,83.9 206.3,82.7 206.3,81.5 206.4,80.3 206.5,79.2 206.7,78 
		206.9,77 207.2,75.9 207.5,74.9 207.8,73.9 208.2,72.9 208.6,72 209.1,71.1 209.6,70.3 210.1,69.5 210.6,68.7 211.2,68 211.9,67.3 
		212.5,66.6 213.2,66 214,65.4 214.7,64.8 215.5,64.3 216.3,63.9 217.2,63.4 218.1,63.1 218.9,62.7 219.9,62.4 220.8,62.1 
		221.8,61.9 222.8,61.7 223.8,61.6 224.9,61.5 226,61.4 	"/>
	<g>
		<g>
			<polyline class="st3" points="227.1,61.4 227.1,61.4 228.2,61.4 229.3,61.5 230.4,61.6 231.4,61.7 232.4,61.9 233.4,62.2 
				234.3,62.5 235.3,62.8 236.2,63.2 237,63.6 237.8,64 238.6,64.5 239.3,65 240,65.6 240.7,66.1 241.3,66.8 241.9,67.4 242.5,68.1 
				243,68.8 243.4,69.6 243.9,70.4 244.3,71.2 244.7,72 245,72.9 245.2,73.8 245.5,74.7 245.7,75.7 245.8,76.6 245.9,77.6 246,78.7 
				246,79.7 246,80.8 246,80.8 245.9,82 245.7,83.3 245.6,84.5 245.3,85.6 245.1,86.7 244.8,87.8 244.4,88.8 244,89.8 243.6,90.7 
				243.1,91.6 242.6,92.5 242.1,93.3 241.5,94.1 240.9,94.8 240.2,95.5 239.5,96.1 238.8,96.7 238.1,97.3 237.3,97.8 236.5,98.3 
				235.7,98.8 234.8,99.2 234,99.5 233.1,99.9 232.2,100.2 231.2,100.4 230.3,100.6 229.3,100.8 228.3,100.9 227.3,101 226.3,101.1 
				225.2,101.1 225.2,101.1 224.2,101.1 223.2,101 222.2,100.9 221.2,100.8 220.3,100.6 219.3,100.4 218.4,100.2 217.5,99.8 
				216.6,99.5 215.8,99.1 215,98.7 214.2,98.3 213.5,97.8 212.8,97.3 212.1,96.7 211.4,96.1 210.8,95.5 210.2,94.8 209.7,94.1 
				209.2,93.4 208.7,92.6 208.2,91.8 207.9,90.9 207.5,90 207.2,89.1 206.9,88.1 206.7,87.1 206.5,86.1 206.4,85 206.3,83.9 
				206.3,82.7 206.3,81.5 206.3,81.5 206.4,80.3 206.5,79.2 206.7,78 206.9,77 207.2,75.9 207.5,74.9 207.8,73.9 208.2,72.9 
				208.6,72 209.1,71.1 209.6,70.3 210.1,69.5 210.6,68.7 211.2,68 211.9,67.3 212.5,66.6 213.2,66 214,65.4 214.7,64.8 215.5,64.3 
				216.3,63.9 217.2,63.4 218.1,63.1 218.9,62.7 219.9,62.4 220.8,62.1 221.8,61.9 222.8,61.7 223.8,61.6 224.9,61.5 226,61.4 
				227.1,61.4 			"/>
		</g>
	</g>
	<polygon class="st2" points="242.1,98.5 245.1,98.5 245.1,98.9 243.9,98.9 243.9,101.4 243.2,101.4 243.2,98.9 242.1,98.9 	"/>
	<g>
		<g>
			<polyline class="st3" points="242.1,98.5 245.1,98.5 245.1,98.9 243.9,98.9 243.9,101.4 243.2,101.4 243.2,98.9 242.1,98.9 
				242.1,98.5 			"/>
		</g>
	</g>
	<polygon class="st2" points="245.4,98.5 246.3,98.5 247.4,100.7 247.4,100.7 248.4,98.5 249.3,98.5 249.3,101.4 248.7,101.4 
		248.7,99.2 248.7,99.2 247.6,101.4 247.1,101.4 246.1,99.2 246.1,99.2 246.1,101.4 245.4,101.4 	"/>
	<g>
		<g>
			<polyline class="st3" points="245.4,98.5 246.3,98.5 247.4,100.7 247.4,100.7 248.4,98.5 249.3,98.5 249.3,101.4 248.7,101.4 
				248.7,99.2 248.7,99.2 247.6,101.4 247.1,101.4 246.1,99.2 246.1,99.2 246.1,101.4 245.4,101.4 245.4,98.5 			"/>
		</g>
	</g>
	<polygon class="st0" points="219,79.9 218.9,81.3 218.8,82.6 218.8,83.8 218.9,84.9 219,85.9 219.3,86.7 219.5,87.6 219.9,88.3 
		220.3,88.9 220.8,89.4 221.3,89.9 221.9,90.2 222.5,90.5 223.2,90.7 224,90.8 224.7,90.9 225.6,90.8 226.4,90.7 227.2,90.6 
		228,90.3 228.7,89.9 229.3,89.5 230,89 230.6,88.3 231.1,87.6 231.6,86.8 232.1,85.9 232.5,84.9 232.9,83.9 233.2,82.7 233.4,81.4 
		233.7,80 233.8,78.9 233.9,77.9 233.9,76.9 233.8,75.9 233.7,75.1 233.5,74.2 233.2,73.4 232.9,72.7 232.5,72 232,71.5 231.5,71 
		230.9,70.6 230.2,70.3 229.5,70.1 228.8,69.9 228,69.9 226.9,70 226,70.2 225.1,70.5 224.3,70.9 223.5,71.4 222.8,71.9 222.2,72.5 
		221.6,73.2 221.1,74 220.6,74.8 220.2,75.6 219.9,76.5 219.6,77.3 219.4,78.2 219.2,79 	"/>
</g>
</svg>
