<?xml version="1.0" encoding="utf-8"?>
<!-- Generator: Adobe Illustrator 19.2.0, SVG Export Plug-In . SVG Version: 6.00 Build 0)  -->
<svg version="1.1" id="Layer_1" xmlns="http://www.w3.org/2000/svg" xmlns:xlink="http://www.w3.org/1999/xlink" x="0px" y="0px"
	 viewBox="0 0 252.2 151" style="enable-background:new 0 0 252.2 151;" xml:space="preserve">
<style type="text/css">
	.st0{fill:#FCB231;}
	.st1{fill:#ED1B2E;}
	.st2{fill:#FFFFFF;}
	.st3{fill:none;stroke:#FFFFFF;stroke-width:0.215;}
</style>
<g>
	<polygon class="st0" points="176.6,151 180.5,150.9 184.3,150.6 188.1,150.1 191.8,149.4 195.5,148.6 199.1,147.6 202.6,146.4 
		206,145 209.4,143.5 212.6,141.8 215.8,140 218.9,138 221.8,135.9 224.7,133.7 227.4,131.3 230.1,128.8 232.6,126.2 235,123.4 
		237.2,120.6 239.3,117.6 241.3,114.5 243.1,111.4 244.8,108.1 246.3,104.8 247.6,101.3 248.8,97.8 249.8,94.2 250.7,90.6 
		251.3,86.8 251.8,83.1 252.1,79.2 252.2,75.3 252.1,71.5 251.8,67.6 251.3,63.9 250.7,60.2 249.8,56.5 248.8,53 247.6,49.5 
		246.3,46.1 244.8,42.7 243.1,39.5 241.3,36.3 239.3,33.3 237.2,30.3 235,27.5 232.6,24.7 230.1,22.1 227.4,19.6 224.7,17.2 
		221.8,15 218.9,12.9 215.8,10.9 212.6,9.1 209.4,7.5 206,5.9 202.6,4.6 199.1,3.4 195.5,2.4 191.8,1.5 188.1,0.9 184.3,0.4 
		180.5,0.1 176.6,0 172.7,0.1 168.9,0.4 165.1,0.9 161.4,1.5 157.8,2.4 154.2,3.4 150.7,4.6 147.2,5.9 143.9,7.5 140.7,9.1 
		137.5,10.9 134.5,12.9 131.5,15 128.7,17.2 125.9,19.6 123.3,22.1 120.8,24.7 118.4,27.5 116.2,30.3 114.1,33.3 112.2,36.3 
		110.3,39.5 108.7,42.7 107.2,46.1 105.8,49.5 104.6,53 103.6,56.5 102.8,60.2 102.1,63.9 101.6,67.6 101.4,71.5 101.3,75.3 
		101.4,79.2 101.6,83.1 102.1,86.8 102.8,90.6 103.6,94.2 104.6,97.8 105.8,101.3 107.2,104.8 108.7,108.1 110.3,111.4 112.2,114.5 
		114.1,117.6 116.2,120.6 118.4,123.4 120.8,126.2 123.3,128.8 125.9,131.3 128.7,133.7 131.5,135.9 134.5,138 137.5,140 
		140.7,141.8 143.9,143.5 147.2,145 150.7,146.4 154.2,147.6 157.8,148.6 161.4,149.4 165.1,150.1 168.9,150.6 172.7,150.9 	"/>
	<polygon class="st1" points="75.6,151 79.5,150.9 83.3,150.6 87.1,150.1 90.8,149.4 94.5,148.6 98,147.6 101.5,146.4 105,145 
		108.3,143.5 111.5,141.8 114.7,140 117.8,138 120.7,135.9 123.6,133.7 126.3,131.3 128.9,128.8 131.4,126.2 133.8,123.4 136,120.6 
		138.1,117.6 140.1,114.5 141.9,111.4 143.5,108.1 145.1,104.8 146.4,101.3 147.6,97.8 148.6,94.2 149.4,90.6 150.1,86.8 
		150.6,83.1 150.9,79.2 151,75.3 150.9,71.5 150.6,67.6 150.1,63.9 149.4,60.2 148.6,56.5 147.6,53 146.4,49.5 145.1,46.1 
		143.5,42.7 141.9,39.5 140.1,36.3 138.1,33.3 136,30.3 133.8,27.5 131.4,24.7 128.9,22.1 126.3,19.6 123.6,17.2 120.7,15 
		117.8,12.9 114.7,10.9 111.5,9.1 108.3,7.5 105,5.9 101.5,4.6 98,3.4 94.5,2.4 90.8,1.5 87.1,0.9 83.3,0.4 79.5,0.1 75.6,0 
		71.7,0.1 67.9,0.4 64.1,0.9 60.4,1.5 56.7,2.4 53.1,3.4 49.6,4.6 46.2,5.9 42.8,7.5 39.6,9.1 36.4,10.9 33.3,12.9 30.4,15 
		27.5,17.2 24.8,19.6 22.2,22.1 19.6,24.7 17.3,27.5 15,30.3 12.9,33.3 10.9,36.3 9.1,39.5 7.5,42.7 5.9,46.1 4.6,49.5 3.4,53 
		2.4,56.5 1.5,60.2 0.9,63.9 0.4,67.6 0.1,71.5 0,75.3 0.1,79.2 0.4,83.1 0.9,86.8 1.5,90.6 2.4,94.2 3.4,97.8 4.6,101.3 5.9,104.8 
		7.5,108.1 9.1,111.4 10.9,114.5 12.9,117.6 15,120.6 17.3,123.4 19.6,126.2 22.2,128.8 24.8,131.3 27.5,133.7 30.4,135.9 33.3,138 
		36.4,140 39.6,141.8 42.8,143.5 46.2,145 49.6,146.4 53.1,147.6 56.7,148.6 60.4,149.4 64.1,150.1 67.9,150.6 71.7,150.9 	"/>
	<polygon class="st0" points="117.3,28.9 157.4,28.9 157.4,24.8 120.7,24.8 	"/>
	<polygon class="st0" points="111.3,38.1 157.4,38.1 157.4,34 113.7,34 	"/>
	<polygon class="st0" points="106.8,47.2 157.4,47.2 157.4,43.1 108.6,43.1 	"/>
	<polygon class="st0" points="103.7,56.3 157.4,56.3 157.4,52.2 105,52.2 	"/>
	<polygon class="st0" points="105.5,100.3 157.5,100.3 157.5,96.2 104.2,96.2 	"/>
	<polygon class="st0" points="109.3,109.4 157.5,109.4 157.5,105.3 107.4,105.3 	"/>
	<polygon class="st0" points="114.7,118.5 157.5,118.5 157.5,114.4 112.2,114.4 	"/>
	<polygon class="st0" points="122.2,127.6 157.5,127.6 157.5,123.5 118.6,123.5 	"/>
	<polygon class="st0" points="101.9,65.4 157.4,65.4 157.4,61.3 102.7,61.3 	"/>
	<polygon class="st0" points="135.7,91.2 156.9,91.2 156.9,87.1 136.5,87.1 	"/>
	<polygon class="st0" points="137.4,82.1 156.9,82.1 156.9,78 138.2,78 	"/>
	<polygon class="st0" points="100.5,78 106,78 106,82.1 100.7,82.1 	"/>
	<polygon class="st2" points="90.2,73 89.9,73 89.5,73 89.2,72.9 88.9,72.9 88.6,72.8 88.2,72.8 87.9,72.7 87.5,72.7 87.2,72.6 
		86.8,72.6 86.3,72.6 85.8,72.5 85.3,72.5 84.7,72.6 84,72.6 83.3,72.7 82.8,72.7 82.3,72.8 81.9,73 81.5,73.1 81.1,73.3 80.8,73.5 
		80.6,73.8 80.3,74 80.2,74.3 80,74.5 80,74.9 80,75.2 80.1,75.5 80.2,75.8 80.4,76.2 80.6,76.5 81.1,77 81.8,77.4 82.5,77.7 
		83.2,78 84,78.2 84.9,78.5 85.7,78.8 86.5,79.1 87.3,79.6 88,80.1 88.7,80.7 89.2,81.5 89.6,82.5 89.9,83.6 90,85 89.9,86.6 
		89.7,87.8 89.4,88.9 89,89.8 88.5,90.7 87.9,91.4 87.2,92 86.5,92.6 85.7,93.1 84.9,93.5 84,93.8 83.2,94.1 82.3,94.3 81.4,94.4 
		80.6,94.5 79.7,94.5 79,94.6 77.9,94.6 76.8,94.5 75.9,94.5 75.1,94.5 74.3,94.5 73.7,94.4 73,94.4 72.5,94.3 71.9,94.3 71.4,94.2 
		71,94.1 70.5,94 70.1,93.8 69.7,93.7 69.3,93.5 68.8,93.4 70,87.8 70.2,87.8 70.5,87.9 70.9,88 71.3,88.1 71.7,88.2 72.3,88.3 
		72.8,88.4 73.4,88.5 74.1,88.6 74.7,88.7 75.4,88.8 76.1,88.9 76.9,88.9 77.6,88.9 78.3,88.9 79.1,88.9 79.8,88.8 80.4,88.6 
		80.9,88.3 81.2,87.9 81.5,87.6 81.7,87.2 81.8,86.7 81.9,86.4 82,85.6 81.7,85 81.3,84.5 80.7,84 79.9,83.7 79,83.3 78,82.9 
		77,82.5 76,82.1 75,81.5 74.1,80.9 73.3,80.1 72.7,79.1 72.2,78 72,76.6 72,75 72.2,74 72.3,73 72.6,72.2 72.9,71.3 73.3,70.6 
		73.8,69.9 74.3,69.3 74.9,68.7 75.7,68.2 76.5,67.8 77.4,67.4 78.4,67.2 79.6,66.9 80.8,66.8 82.2,66.7 83.7,66.6 84.6,66.6 
		85.5,66.7 86.3,66.7 87,66.7 87.6,66.8 88.2,66.8 88.7,66.9 89.2,66.9 89.6,67 90,67 90.3,67.1 90.6,67.1 90.9,67.2 91.1,67.2 
		91.3,67.3 91.5,67.3 	"/>
	<g>
		<g>
			<polyline class="st3" points="90.2,73 90.2,73 89.9,73 89.5,73 89.2,72.9 88.9,72.9 88.6,72.8 88.2,72.8 87.9,72.7 87.5,72.7 
				87.2,72.6 86.8,72.6 86.3,72.6 85.8,72.5 85.3,72.5 84.7,72.6 84,72.6 83.3,72.7 83.3,72.7 82.8,72.7 82.3,72.8 81.9,73 
				81.5,73.1 81.1,73.3 80.8,73.5 80.6,73.8 80.3,74 80.2,74.3 80,74.5 80,74.9 80,75.2 80.1,75.5 80.2,75.8 80.4,76.2 80.6,76.5 
				80.6,76.5 81.1,77 81.8,77.4 82.5,77.7 83.2,78 84,78.2 84.9,78.5 85.7,78.8 86.5,79.1 87.3,79.6 88,80.1 88.7,80.7 89.2,81.5 
				89.6,82.5 89.9,83.6 90,85 89.9,86.6 89.9,86.6 89.7,87.8 89.4,88.9 89,89.8 88.5,90.7 87.9,91.4 87.2,92 86.5,92.6 85.7,93.1 
				84.9,93.5 84,93.8 83.2,94.1 82.3,94.3 81.4,94.4 80.6,94.5 79.7,94.5 79,94.6 79,94.6 77.9,94.6 76.8,94.5 75.9,94.5 75.1,94.5 
				74.3,94.5 73.7,94.4 73,94.4 72.5,94.3 71.9,94.3 71.4,94.2 71,94.1 70.5,94 70.1,93.8 69.7,93.7 69.3,93.5 68.8,93.4 70,87.8 
				70,87.8 70.2,87.8 70.5,87.9 70.9,88 71.3,88.1 71.7,88.2 72.3,88.3 72.8,88.4 73.4,88.5 74.1,88.6 74.7,88.7 75.4,88.8 
				76.1,88.9 76.9,88.9 77.6,88.9 78.3,88.9 79.1,88.9 79.1,88.9 79.8,88.8 80.4,88.6 80.9,88.3 81.2,87.9 81.5,87.6 81.7,87.2 
				81.8,86.7 81.9,86.4 81.9,86.4 82,85.6 81.7,85 81.3,84.5 80.7,84 79.9,83.7 79,83.3 78,82.9 77,82.5 76,82.1 75,81.5 74.1,80.9 
				73.3,80.1 72.7,79.1 72.2,78 72,76.6 72,75 72,75 72.2,74 72.3,73 72.6,72.2 72.9,71.3 73.3,70.6 73.8,69.9 74.3,69.3 74.9,68.7 
				75.7,68.2 76.5,67.8 77.4,67.4 78.4,67.2 79.6,66.9 80.8,66.8 82.2,66.7 83.7,66.6 83.7,66.6 84.6,66.6 85.5,66.7 86.3,66.7 
				87,66.7 87.6,66.8 88.2,66.8 88.7,66.9 89.2,66.9 89.6,67 90,67 90.3,67.1 90.6,67.1 90.9,67.2 91.1,67.2 91.3,67.3 91.5,67.3 
				90.2,73 			"/>
		</g>
	</g>
	<polygon class="st2" points="96.3,61 103.3,61 102.3,67.2 106.5,67.2 105.6,72.9 101.1,72.8 98.7,87 98.7,87.5 98.8,87.9 99,88.3 
		99.4,88.6 99.8,88.7 100.3,88.9 100.9,89 101.5,89 102.1,89 102.6,89 103,88.9 103.4,88.8 103.8,88.7 104,88.6 104.2,88.6 
		104.2,88.5 103.3,93.3 103.1,93.4 103,93.5 102.8,93.6 102.6,93.7 102.4,93.8 102.2,93.8 102,93.9 101.8,94 101.5,94.1 101.3,94.1 
		101,94.2 100.6,94.2 100.3,94.3 99.9,94.3 99.5,94.4 99.1,94.4 97.2,94.4 96.1,94.4 95.2,94.3 94.4,94.1 93.7,93.9 93.2,93.7 
		92.7,93.4 92.2,93.1 91.9,92.8 91.7,92.4 91.5,92 91.4,91.6 91.3,91.1 91.3,90.6 91.3,90 91.3,89.4 91.4,88.8 	"/>
	<g>
		<g>
			<polyline class="st3" points="96.3,61 103.3,61 102.3,67.2 106.5,67.2 105.6,72.9 101.1,72.8 98.7,87 98.7,87 98.7,87.5 
				98.8,87.9 99,88.3 99.4,88.6 99.8,88.7 100.3,88.9 100.9,89 101.5,89 101.5,89 102.1,89 102.6,89 103,88.9 103.4,88.8 
				103.8,88.7 104,88.6 104.2,88.6 104.2,88.5 103.3,93.3 103.3,93.3 103.1,93.4 103,93.5 102.8,93.6 102.6,93.7 102.4,93.8 
				102.2,93.8 102,93.9 101.8,94 101.5,94.1 101.3,94.1 101,94.2 100.6,94.2 100.3,94.3 99.9,94.3 99.5,94.4 99.1,94.4 97.2,94.4 
				97.2,94.4 96.1,94.4 95.2,94.3 94.4,94.1 93.7,93.9 93.2,93.7 92.7,93.4 92.2,93.1 91.9,92.8 91.7,92.4 91.5,92 91.4,91.6 
				91.3,91.1 91.3,90.6 91.3,90 91.3,89.4 91.4,88.8 96.3,61 			"/>
		</g>
	</g>
	<polygon class="st2" points="112.2,82.5 112.1,83 112.1,83.4 112.1,83.9 112.2,84.4 112.4,84.9 112.6,85.3 112.9,85.8 113.2,86.2 
		113.5,86.7 113.9,87.1 114.3,87.4 114.8,87.7 115.2,88 115.7,88.2 116.3,88.4 116.8,88.5 117.4,88.6 118.1,88.7 118.7,88.8 
		119.4,88.8 120,88.9 120.7,88.9 121.4,88.8 122.1,88.8 122.8,88.7 123.5,88.6 124.2,88.4 124.9,88.2 125.6,87.9 126.3,87.6 
		127,87.2 127.8,86.7 126.7,93 126.3,93.2 125.9,93.4 125.5,93.6 125.1,93.7 124.8,93.8 124.4,94 123.9,94.1 123.5,94.2 123.1,94.2 
		122.5,94.3 122,94.3 121.4,94.4 120.8,94.4 120.1,94.4 119.3,94.4 118.4,94.4 117.2,94.4 115.9,94.3 114.6,94.1 113.4,93.8 
		112.1,93.4 110.9,92.9 109.8,92.3 108.7,91.6 107.7,90.7 106.9,89.6 106.1,88.5 105.5,87.1 105.1,85.6 104.8,83.9 104.7,82 
		104.8,79.9 104.9,79.1 105.1,78.2 105.3,77.2 105.6,76.1 106,75 106.4,73.9 107,72.8 107.7,71.7 108.5,70.7 109.5,69.8 110.7,68.9 
		111.9,68.1 113.4,67.5 115.1,67 116.9,66.7 119,66.6 119.9,66.7 121,66.8 122,66.9 123.1,67.2 124.1,67.6 125.1,68 126,68.6 
		126.8,69.4 127.6,70.2 128.2,71.2 128.8,72.4 129.1,73.8 129.3,75.3 129.3,77 129.2,79 128.8,81.1 128.7,82.6 110.1,82.6 
		111.3,77.6 122.4,77.6 122.5,77 122.4,76.4 122.4,75.8 122.3,75.3 122.1,74.8 121.9,74.4 121.7,74 121.4,73.7 121.1,73.4 
		120.8,73.1 120.4,72.9 120,72.7 119.6,72.5 119.2,72.4 118.8,72.3 118.3,72.3 117.8,72.3 117.4,72.4 116.9,72.5 116.5,72.6 
		116.1,72.8 115.7,73.1 115.3,73.4 115,73.7 114.6,74 114.3,74.4 114.1,74.8 113.8,75.2 113.6,75.7 113.4,76.2 113.3,76.7 
		113.2,77.2 	"/>
	<g>
		<g>
			<polyline class="st3" points="112.2,82.5 112.2,82.5 112.1,83 112.1,83.4 112.1,83.9 112.2,84.4 112.4,84.9 112.6,85.3 
				112.9,85.8 113.2,86.2 113.5,86.7 113.9,87.1 114.3,87.4 114.8,87.7 115.2,88 115.7,88.2 116.3,88.4 116.8,88.5 116.8,88.5 
				117.4,88.6 118.1,88.7 118.7,88.8 119.4,88.8 120,88.9 120.7,88.9 121.4,88.8 122.1,88.8 122.8,88.7 123.5,88.6 124.2,88.4 
				124.9,88.2 125.6,87.9 126.3,87.6 127,87.2 127.8,86.7 126.7,93 126.7,93 126.3,93.2 125.9,93.4 125.5,93.6 125.1,93.7 
				124.8,93.8 124.4,94 123.9,94.1 123.5,94.2 123.1,94.2 122.5,94.3 122,94.3 121.4,94.4 120.8,94.4 120.1,94.4 119.3,94.4 
				118.4,94.4 118.4,94.4 117.2,94.4 115.9,94.3 114.6,94.1 113.4,93.8 112.1,93.4 110.9,92.9 109.8,92.3 108.7,91.6 107.7,90.7 
				106.9,89.6 106.1,88.5 105.5,87.1 105.1,85.6 104.8,83.9 104.7,82 104.8,79.9 104.8,79.9 104.9,79.1 105.1,78.2 105.3,77.2 
				105.6,76.1 106,75 106.4,73.9 107,72.8 107.7,71.7 108.5,70.7 109.5,69.8 110.7,68.9 111.9,68.1 113.4,67.5 115.1,67 116.9,66.7 
				119,66.6 119,66.6 119.9,66.7 121,66.8 122,66.9 123.1,67.2 124.1,67.6 125.1,68 126,68.6 126.8,69.4 127.6,70.2 128.2,71.2 
				128.8,72.4 129.1,73.8 129.3,75.3 129.3,77 129.2,79 128.8,81.1 128.7,82.6 110.1,82.6 111.3,77.6 122.4,77.6 122.4,77.6 
				122.5,77 122.4,76.4 122.4,75.8 122.3,75.3 122.1,74.8 121.9,74.4 121.7,74 121.4,73.7 121.1,73.4 120.8,73.1 120.4,72.9 
				120,72.7 119.6,72.5 119.2,72.4 118.8,72.3 118.3,72.3 118.3,72.3 117.8,72.3 117.4,72.4 116.9,72.5 116.5,72.6 116.1,72.8 
				115.7,73.1 115.3,73.4 115,73.7 114.6,74 114.3,74.4 114.1,74.8 113.8,75.2 113.6,75.7 113.4,76.2 113.3,76.7 113.2,77.2 
				112.2,82.5 			"/>
		</g>
	</g>
	<polygon class="st2" points="172.9,68.7 172.5,68.5 172.2,68.4 171.9,68.2 171.5,68 171.1,67.9 170.7,67.7 170.2,67.5 169.8,67.4 
		169.3,67.3 168.8,67.2 168.3,67.1 167.7,67 167.2,66.9 166.6,66.9 166,66.9 165.3,66.9 164.7,66.9 164,66.9 163.3,67 162.6,67.1 
		161.9,67.3 161.2,67.6 160.5,68 159.8,68.4 159.1,69 158.4,69.7 157.8,70.5 157.2,71.4 156.6,72.5 156.1,73.8 155.6,75.2 
		155.2,76.9 155,77.8 154.9,78.7 154.9,79.6 154.9,80.4 155,81.3 155.2,82.1 155.4,82.9 155.7,83.6 156,84.3 156.5,85 157,85.6 
		157.7,86.1 158.3,86.6 159.1,86.9 160,87.3 161,87.5 161.3,87.6 161.7,87.7 162.1,87.7 162.6,87.8 163.2,87.8 163.8,87.8 
		164.4,87.8 165.1,87.8 165.7,87.7 166.4,87.6 167,87.4 167.7,87.2 168.3,86.9 168.9,86.6 169.4,86.2 169.9,85.7 168.8,92.5 
		168.6,92.6 168.5,92.8 168.3,93 168,93.1 167.8,93.3 167.4,93.5 167,93.7 166.5,93.8 166,94 165.3,94.1 164.5,94.2 163.6,94.3 
		162.6,94.4 161.5,94.4 160.2,94.4 158.8,94.3 157.6,94.2 156.4,93.9 155.3,93.5 154.1,93 153,92.4 151.9,91.7 150.9,90.8 
		149.9,89.7 149.1,88.6 148.4,87.3 147.8,85.9 147.3,84.4 147,82.6 146.9,80.8 147,78.9 147.2,76.7 147.4,75.7 147.7,74.7 
		147.9,73.7 148.2,72.7 148.5,71.9 148.8,71 149.1,70.1 149.5,69.3 149.9,68.5 150.2,67.8 150.7,67.1 151.1,66.4 151.6,65.8 
		152.1,65.2 152.6,64.6 153.1,64.1 153.7,63.6 154.3,63.1 154.9,62.7 155.6,62.3 156.3,61.9 156.9,61.5 157.7,61.2 158.4,61 
		159.2,60.7 160,60.5 160.8,60.3 161.7,60.2 162.5,60 163.4,59.9 164.3,59.9 165.3,59.9 166.1,59.9 166.9,59.9 167.7,60 168.4,60.1 
		169.2,60.2 169.8,60.4 170.5,60.5 171.1,60.6 171.7,60.8 172.2,61 172.7,61.1 173.1,61.3 173.5,61.4 173.8,61.5 174,61.6 
		174.2,61.6 	"/>
	<g>
		<g>
			<polyline class="st3" points="172.9,68.7 172.9,68.7 172.5,68.5 172.2,68.4 171.9,68.2 171.5,68 171.1,67.9 170.7,67.7 
				170.2,67.5 169.8,67.4 169.3,67.3 168.8,67.2 168.3,67.1 167.7,67 167.2,66.9 166.6,66.9 166,66.9 165.3,66.9 165.3,66.9 
				164.7,66.9 164,66.9 163.3,67 162.6,67.1 161.9,67.3 161.2,67.6 160.5,68 159.8,68.4 159.1,69 158.4,69.7 157.8,70.5 157.2,71.4 
				156.6,72.5 156.1,73.8 155.6,75.2 155.2,76.9 155.2,76.9 155,77.8 154.9,78.7 154.9,79.6 154.9,80.4 155,81.3 155.2,82.1 
				155.4,82.9 155.7,83.6 156,84.3 156.5,85 157,85.6 157.7,86.1 158.3,86.6 159.1,86.9 160,87.3 161,87.5 161,87.5 161.3,87.6 
				161.7,87.7 162.1,87.7 162.6,87.8 163.2,87.8 163.8,87.8 164.4,87.8 165.1,87.8 165.7,87.7 166.4,87.6 167,87.4 167.7,87.2 
				168.3,86.9 168.9,86.6 169.4,86.2 169.9,85.7 168.8,92.5 168.8,92.5 168.6,92.6 168.5,92.8 168.3,93 168,93.1 167.8,93.3 
				167.4,93.5 167,93.7 166.5,93.8 166,94 165.3,94.1 164.5,94.2 163.6,94.3 162.6,94.4 161.5,94.4 160.2,94.4 158.8,94.3 
				158.8,94.3 157.6,94.2 156.4,93.9 155.3,93.5 154.1,93 153,92.4 151.9,91.7 150.9,90.8 149.9,89.7 149.1,88.6 148.4,87.3 
				147.8,85.9 147.3,84.4 147,82.6 146.9,80.8 147,78.9 147.2,76.7 147.2,76.7 147.4,75.7 147.7,74.7 147.9,73.7 148.2,72.7 
				148.5,71.9 148.8,71 149.1,70.1 149.5,69.3 149.9,68.5 150.2,67.8 150.7,67.1 151.1,66.4 151.6,65.8 152.1,65.2 152.6,64.6 
				153.1,64.1 153.7,63.6 154.3,63.1 154.9,62.7 155.6,62.3 156.3,61.9 156.9,61.5 157.7,61.2 158.4,61 159.2,60.7 160,60.5 
				160.8,60.3 161.7,60.2 162.5,60 163.4,59.9 164.3,59.9 165.3,59.9 165.3,59.9 166.1,59.9 166.9,59.9 167.7,60 168.4,60.1 
				169.2,60.2 169.8,60.4 170.5,60.5 171.1,60.6 171.7,60.8 172.2,61 172.7,61.1 173.1,61.3 173.5,61.4 173.8,61.5 174,61.6 
				174.2,61.6 172.9,68.7 			"/>
		</g>
	</g>
	<polygon class="st2" points="235.6,94.4 228.5,94.4 229,91.6 229,91.4 228.6,91.9 228.2,92.3 227.7,92.7 227.3,93.1 226.8,93.4 
		226.4,93.7 225.9,93.9 225.4,94.2 224.9,94.3 224.5,94.5 224,94.6 223.5,94.7 223,94.7 222.5,94.8 222,94.8 221.5,94.8 220.1,94.7 
		218.9,94.4 217.8,94 216.8,93.4 215.9,92.7 215,91.8 214.3,90.9 213.7,89.8 213.2,88.7 212.8,87.5 212.5,86.2 212.3,84.9 
		212.2,83.6 212.3,82.3 212.4,81 212.6,79.7 213,78.2 213.5,76.8 214,75.5 214.6,74.2 215.3,73.1 216.1,72.1 216.8,71.2 217.7,70.3 
		218.6,69.6 219.5,68.9 220.5,68.4 221.5,68 222.5,67.6 223.5,67.4 224.5,67.2 225.6,67.2 226.3,67.2 227,67.3 227.7,67.4 
		228.3,67.6 228.9,67.8 229.4,68 229.9,68.3 230.3,68.6 230.8,68.9 231.1,69.2 231.5,69.5 231.8,69.9 232,70.2 232.3,70.5 
		232.5,70.8 232.6,71.1 232.6,71.1 234.4,61.1 241.3,61.1 	"/>
	<g>
		<g>
			<polyline class="st3" points="235.6,94.4 228.5,94.4 229,91.6 229,91.4 229,91.4 228.6,91.9 228.2,92.3 227.7,92.7 227.3,93.1 
				226.8,93.4 226.4,93.7 225.9,93.9 225.4,94.2 224.9,94.3 224.5,94.5 224,94.6 223.5,94.7 223,94.7 222.5,94.8 222,94.8 
				221.5,94.8 221.5,94.8 220.1,94.7 218.9,94.4 217.8,94 216.8,93.4 215.9,92.7 215,91.8 214.3,90.9 213.7,89.8 213.2,88.7 
				212.8,87.5 212.5,86.2 212.3,84.9 212.2,83.6 212.3,82.3 212.4,81 212.6,79.7 212.6,79.7 213,78.2 213.5,76.8 214,75.5 
				214.6,74.2 215.3,73.1 216.1,72.1 216.8,71.2 217.7,70.3 218.6,69.6 219.5,68.9 220.5,68.4 221.5,68 222.5,67.6 223.5,67.4 
				224.5,67.2 225.6,67.2 225.6,67.2 226.3,67.2 227,67.3 227.7,67.4 228.3,67.6 228.9,67.8 229.4,68 229.9,68.3 230.3,68.6 
				230.8,68.9 231.1,69.2 231.5,69.5 231.8,69.9 232,70.2 232.3,70.5 232.5,70.8 232.6,71.1 232.6,71.1 234.4,61.1 241.3,61.1 
				235.6,94.4 			"/>
		</g>
	</g>
	<polygon class="st0" points="224,88.3 224.7,88.2 225.4,88.1 226,87.9 226.6,87.6 227.1,87.3 227.6,86.9 228.1,86.5 228.6,86 
		228.9,85.5 229.3,85 229.6,84.4 229.9,83.8 230.2,83.1 230.4,82.5 230.5,81.8 230.7,81.1 230.8,80.4 230.9,79.6 230.9,79 
		230.9,78.2 230.8,77.6 230.7,76.9 230.5,76.3 230.3,75.7 230,75.2 229.7,74.8 229.4,74.3 229,74 228.6,73.7 228.1,73.5 227.6,73.4 
		227.1,73.3 226.4,73.4 225.8,73.5 225.2,73.7 224.6,73.9 224.1,74.2 223.6,74.7 223.2,75.1 222.7,75.6 222.3,76.1 222,76.7 
		221.7,77.3 221.4,78 221.1,78.7 220.9,79.4 220.7,80.1 220.6,80.8 220.4,82 220.5,83.2 220.7,84.4 221,85.6 221.5,86.7 222.2,87.5 
		223,88.1 	"/>
	<polygon class="st2" points="67.7,88.8 66.7,94.4 60.2,94.4 60.4,93.4 60.5,92.4 60.6,91.7 60.7,91.4 60.4,91.8 60,92.2 59.5,92.6 
		59,92.9 58.4,93.3 57.7,93.6 57.1,93.9 56.4,94.1 55.6,94.4 54.9,94.5 54.2,94.7 53.4,94.8 52.7,94.8 51.9,94.9 51.2,94.8 
		50.5,94.7 49.6,94.5 48.8,94.2 48.1,93.9 47.5,93.5 46.9,93.1 46.4,92.6 46,92.1 45.6,91.6 45.3,91.1 45.1,90.5 44.9,90 44.7,89.4 
		44.6,88.8 44.5,88.2 44.5,87.7 44.5,87.1 44.6,86.1 44.7,85.2 45,84.3 45.3,83.4 45.7,82.6 46.2,81.9 46.7,81.2 47.3,80.5 
		47.9,79.9 48.7,79.4 49.4,78.9 50.2,78.5 51,78.2 51.8,77.9 52.7,77.7 53.6,77.5 53.6,77.5 53.7,77.5 53.9,77.5 54.2,77.4 
		54.5,77.4 54.9,77.4 55.2,77.3 55.7,77.2 56.1,77.2 56.5,77.1 57,77.1 57.4,77.1 57.8,77 58.2,77 58.6,77 58.8,77 59.4,77 60,77 
		60.6,77 61.2,77 61.6,77.1 62,77.1 62.2,77.1 62.3,77.1 62.4,76.9 62.5,76.5 62.6,75.9 62.7,75.5 62.6,74.9 62.4,74.4 62,73.9 
		61.6,73.6 61.2,73.2 60.6,73 60,72.8 59.3,72.8 58.6,72.8 57.9,72.7 57.1,72.7 56.3,72.8 55.4,72.8 54.6,72.9 53.8,73 53,73.1 
		52.2,73.2 51.5,73.3 50.8,73.4 50.2,73.6 49.7,73.7 49.2,73.9 48.9,74 48.6,74.2 50.4,68.1 50.9,67.8 51.5,67.6 52.1,67.4 
		52.7,67.3 53.3,67.2 54,67.1 54.7,67 55.4,66.9 56.1,66.9 56.8,66.9 57.6,66.8 58.4,66.8 59.2,66.8 60,66.8 60.9,66.9 61.8,66.9 
		62.5,66.9 63.3,67.1 64.1,67.2 64.9,67.5 65.7,67.8 66.4,68.1 67.2,68.6 67.9,69 68.5,69.6 69.1,70.2 69.6,70.9 70,71.7 70.2,72.5 
		70.4,73.4 70.4,74.3 70.2,75.3 	"/>
	<g>
		<g>
			<polyline class="st3" points="67.7,88.8 66.7,94.4 60.2,94.4 60.2,94.4 60.4,93.4 60.5,92.4 60.6,91.7 60.7,91.4 60.7,91.4 
				60.4,91.8 60,92.2 59.5,92.6 59,92.9 58.4,93.3 57.7,93.6 57.1,93.9 56.4,94.1 55.6,94.4 54.9,94.5 54.2,94.7 53.4,94.8 
				52.7,94.8 51.9,94.9 51.2,94.8 50.5,94.7 50.5,94.7 49.6,94.5 48.8,94.2 48.1,93.9 47.5,93.5 46.9,93.1 46.4,92.6 46,92.1 
				45.6,91.6 45.3,91.1 45.1,90.5 44.9,90 44.7,89.4 44.6,88.8 44.5,88.2 44.5,87.7 44.5,87.1 44.5,87.1 44.6,86.1 44.7,85.2 
				45,84.3 45.3,83.4 45.7,82.6 46.2,81.9 46.7,81.2 47.3,80.5 47.9,79.9 48.7,79.4 49.4,78.9 50.2,78.5 51,78.2 51.8,77.9 
				52.7,77.7 53.6,77.5 53.6,77.5 53.6,77.5 53.7,77.5 53.9,77.5 54.2,77.4 54.5,77.4 54.9,77.4 55.2,77.3 55.7,77.2 56.1,77.2 
				56.5,77.1 57,77.1 57.4,77.1 57.8,77 58.2,77 58.6,77 58.8,77 58.8,77 59.4,77 60,77 60.6,77 61.2,77 61.6,77.1 62,77.1 
				62.2,77.1 62.3,77.1 62.3,77.1 62.4,76.9 62.5,76.5 62.6,75.9 62.7,75.5 62.7,75.5 62.6,74.9 62.4,74.4 62,73.9 61.6,73.6 
				61.2,73.2 60.6,73 60,72.8 59.3,72.8 59.3,72.8 58.6,72.8 57.9,72.7 57.1,72.7 56.3,72.8 55.4,72.8 54.6,72.9 53.8,73 53,73.1 
				52.2,73.2 51.5,73.3 50.8,73.4 50.2,73.6 49.7,73.7 49.2,73.9 48.9,74 48.6,74.2 50.4,68.1 50.4,68.1 50.9,67.8 51.5,67.6 
				52.1,67.4 52.7,67.3 53.3,67.2 54,67.1 54.7,67 55.4,66.9 56.1,66.9 56.8,66.9 57.6,66.8 58.4,66.8 59.2,66.8 60,66.8 60.9,66.9 
				61.8,66.9 61.8,66.9 62.5,66.9 63.3,67.1 64.1,67.2 64.9,67.5 65.7,67.8 66.4,68.1 67.2,68.6 67.9,69 68.5,69.6 69.1,70.2 
				69.6,70.9 70,71.7 70.2,72.5 70.4,73.4 70.4,74.3 70.2,75.3 67.7,88.8 			"/>
		</g>
	</g>
	<polygon class="st1" points="61.5,82.1 61.5,82 61.4,81.9 61.3,81.8 61,81.8 60.7,81.7 60.4,81.7 60,81.7 59.6,81.7 59.2,81.7 
		58.8,81.8 58.4,81.8 58,81.9 57.6,81.9 57.2,82 56.9,82.1 56.7,82.1 56.5,82.2 56.3,82.3 56,82.4 55.7,82.5 55.4,82.6 55,82.8 
		54.7,83 54.4,83.2 54,83.5 53.7,83.7 53.4,84 53.1,84.3 52.8,84.7 52.7,85 52.5,85.4 52.4,85.8 52.4,86.7 52.5,87.4 52.8,87.9 
		53.1,88.3 53.5,88.5 53.9,88.7 54.3,88.8 54.7,88.8 55.5,88.8 56.2,88.7 56.9,88.6 57.4,88.4 57.9,88.2 58.4,88 58.9,87.8 
		59.2,87.5 59.6,87.3 59.9,86.9 60.1,86.7 60.3,86.4 60.5,86.1 60.7,85.8 60.8,85.5 60.9,85.2 61.1,84.5 61.3,83.6 61.4,82.8 	"/>
	<polygon class="st2" points="14.1,94.4 7.2,94.4 13,61 25,61 26.1,80.8 34.5,61 47.1,61 41.1,94.4 34.2,94.4 38.6,69.5 38.3,69.5 
		28,94.4 20.1,94.4 20.1,93.4 19.9,90.6 19.7,86.7 19.4,82.1 19.2,77.6 18.9,73.6 18.8,70.7 18.7,69.5 18.6,69.5 18.5,69.5 
		18.3,69.5 18.3,69.5 	"/>
	<g>
		<g>
			<polyline class="st3" points="14.1,94.4 7.2,94.4 13,61 25,61 26.1,80.8 34.5,61 47.1,61 41.1,94.4 34.2,94.4 38.6,69.5 
				38.3,69.5 28,94.4 20.1,94.4 20.1,94.4 20.1,93.4 19.9,90.6 19.7,86.7 19.4,82.1 19.2,77.6 18.9,73.6 18.8,70.7 18.7,69.5 
				18.7,69.5 18.6,69.5 18.5,69.5 18.3,69.5 18.3,69.5 14.1,94.4 			"/>
		</g>
	</g>
	<polygon class="st2" points="194,88.8 193,94.4 186.6,94.4 186.7,93.4 186.7,92.5 186.7,91.8 186.7,91.5 186.4,91.9 186,92.2 
		185.6,92.6 185,93 184.5,93.3 183.9,93.6 183.3,93.9 182.6,94.2 181.9,94.4 181.2,94.6 180.5,94.7 179.8,94.8 179.1,94.8 
		178.4,94.9 177.7,94.8 177,94.7 176.1,94.5 175.2,94.2 174.5,93.9 173.9,93.5 173.3,93.1 172.8,92.6 172.4,92.1 172.1,91.6 
		171.8,91.1 171.5,90.5 171.3,90 171.2,89.4 171.1,88.8 171,88.2 171,87.7 171,87.1 171,86.1 171.2,85.2 171.4,84.3 171.7,83.4 
		172.1,82.6 172.6,81.9 173.1,81.2 173.7,80.5 174.4,79.9 175.1,79.4 175.8,78.9 176.6,78.5 177.4,78.2 178.2,77.9 179.1,77.7 
		179.9,77.5 180,77.5 180.1,77.5 180.3,77.5 180.5,77.4 180.9,77.4 181.2,77.4 181.6,77.3 182,77.2 182.5,77.2 182.9,77.1 
		183.3,77.1 183.8,77.1 184.2,77 184.5,77 184.9,77 185.2,77 185.8,77 186.4,77 187,77 187.5,77 188,77.1 188.4,77.1 188.7,77.1 
		188.8,77.1 188.8,76.9 188.9,76.5 189,75.9 189,75.5 188.9,74.9 188.7,74.4 188.4,73.9 188,73.6 187.5,73.2 187,73 186.4,72.8 
		185.8,72.8 185.1,72.8 184.4,72.7 183.6,72.7 182.8,72.8 181.9,72.8 181.1,72.9 180.3,73 179.5,73.1 178.7,73.2 178,73.3 
		177.3,73.4 176.7,73.6 176.2,73.7 175.7,73.9 175.3,74 175.1,74.2 176.9,68.1 177.4,67.8 178,67.6 178.6,67.4 179.2,67.3 
		179.8,67.2 180.5,67.1 181.1,67 181.8,66.9 182.5,66.9 183.3,66.9 184,66.8 184.8,66.8 185.6,66.8 186.4,66.8 187.3,66.9 
		188.1,66.9 188.8,66.9 189.6,67.1 190.4,67.2 191.2,67.5 192,67.8 192.8,68.1 193.6,68.6 194.3,69 194.9,69.6 195.5,70.2 196,70.9 
		196.4,71.7 196.7,72.5 196.8,73.4 196.8,74.3 196.7,75.3 	"/>
	<polygon class="st2" points="193,94.6 193.1,94.5 194.2,88.8 193.9,88.8 192.8,94.4 193,94.3 193,94.6 193.1,94.6 193.1,94.5 	"/>
	<polygon class="st2" points="186.4,94.4 186.6,94.6 193,94.6 193,94.3 186.6,94.3 186.8,94.4 186.4,94.4 186.4,94.6 186.6,94.6 	
		"/>
	<polygon class="st2" points="186.9,91.6 186.6,91.4 186.5,91.8 186.5,92.5 186.5,93.4 186.4,94.4 186.8,94.4 186.8,93.4 
		186.9,92.5 186.8,91.8 186.8,91.6 186.6,91.4 	"/>
	<polygon class="st2" points="177,94.8 177,94.8 177.7,94.9 178.4,95 179.1,95 179.8,94.9 180.5,94.8 181.3,94.7 182,94.5 
		182.7,94.3 183.3,94.1 184,93.7 184.6,93.4 185.1,93.1 185.7,92.7 186.1,92.4 186.5,92 186.9,91.6 186.6,91.4 186.3,91.8 
		185.9,92.1 185.5,92.5 185,92.8 184.4,93.1 183.8,93.4 183.2,93.7 182.6,94 181.9,94.2 181.2,94.4 180.5,94.5 179.8,94.6 
		179.1,94.7 178.4,94.7 177.7,94.6 177,94.5 177,94.5 	"/>
	<polygon class="st2" points="170.8,87.1 170.8,87.1 170.8,87.7 170.9,88.2 170.9,88.9 171,89.4 171.2,90 171.4,90.6 171.6,91.2 
		171.9,91.7 172.3,92.2 172.7,92.7 173.2,93.2 173.8,93.6 174.5,94 175.2,94.4 176,94.6 177,94.8 177,94.5 176.1,94.3 175.3,94.1 
		174.6,93.7 173.9,93.4 173.4,93 173,92.5 172.5,92 172.2,91.6 171.9,91 171.7,90.5 171.5,90 171.4,89.4 171.2,88.8 171.2,88.2 
		171.1,87.7 171.1,87.1 171.1,87.1 	"/>
	<polygon class="st2" points="179.9,77.4 179.9,77.4 179,77.5 178.2,77.7 177.3,78 176.5,78.4 175.7,78.8 175,79.3 174.3,79.8 
		173.6,80.4 173,81.1 172.5,81.8 172,82.5 171.6,83.4 171.2,84.3 171,85.2 170.9,86.1 170.8,87.1 171.1,87.1 171.2,86.1 171.3,85.2 
		171.6,84.4 171.9,83.5 172.3,82.7 172.7,82 173.3,81.3 173.8,80.6 174.5,80.1 175.2,79.5 175.9,79.1 176.7,78.7 177.4,78.3 
		178.3,78 179.1,77.8 179.9,77.7 179.9,77.7 	"/>
	<polygon class="st2" points="185.2,76.8 185.2,76.8 184.9,76.8 184.5,76.9 184.2,76.9 183.8,76.9 183.3,77 182.9,77 182.5,77 
		182,77.1 181.6,77.1 181.2,77.2 180.9,77.2 180.5,77.3 180.3,77.3 180.1,77.3 180,77.4 179.9,77.4 179.9,77.7 180,77.7 180.1,77.6 
		180.3,77.6 180.5,77.6 180.9,77.5 181.2,77.5 181.6,77.5 182,77.4 182.5,77.4 182.9,77.3 183.3,77.3 183.8,77.2 184.2,77.2 
		184.5,77.2 184.9,77.2 185.2,77.2 185.2,77.2 	"/>
	<polygon class="st2" points="188.6,77.1 188.8,77 188.7,77 188.4,76.9 188,76.9 187.5,76.9 187,76.9 186.4,76.9 185.8,76.8 
		185.2,76.8 185.2,77.2 185.8,77.2 186.4,77.2 187,77.2 187.5,77.2 188,77.2 188.4,77.2 188.7,77.3 188.8,77.3 188.9,77.1 
		188.8,77.3 188.9,77.3 188.9,77.1 	"/>
	<polygon class="st2" points="188.9,75.5 188.8,75.5 188.8,75.9 188.7,76.5 188.7,76.9 188.6,77.1 188.9,77.1 189,77 189,76.5 
		189.1,75.9 189.2,75.5 189.2,75.5 	"/>
	<polygon class="st2" points="185.8,72.9 185.8,73 186.4,73 187,73.1 187.5,73.4 187.9,73.7 188.3,74 188.6,74.5 188.8,74.9 
		188.9,75.5 189.2,75.5 189.1,74.9 188.9,74.3 188.5,73.8 188.1,73.4 187.6,73.1 187.1,72.8 186.5,72.7 185.8,72.6 185.8,72.6 	"/>
	<polygon class="st2" points="174.9,74.2 175.2,74.3 175.4,74.2 175.8,74 176.2,73.9 176.7,73.7 177.4,73.6 178,73.5 178.8,73.3 
		179.5,73.2 180.3,73.1 181.1,73 181.9,73 182.8,72.9 183.6,72.9 184.4,72.9 185.1,72.9 185.8,72.9 185.8,72.6 185.1,72.6 
		184.4,72.6 183.6,72.6 182.8,72.6 181.9,72.7 181.1,72.7 180.3,72.8 179.5,72.9 178.7,73 178,73.1 177.3,73.3 176.7,73.4 
		176.1,73.6 175.7,73.7 175.3,73.9 175,74.1 175.2,74.2 	"/>
	<polygon class="st2" points="176.8,67.9 176.7,68 174.9,74.2 175.2,74.2 177,68.1 176.9,68.2 176.8,67.9 176.7,67.9 176.7,68 	"/>
	<polygon class="st2" points="188.1,66.7 188.1,66.7 187.3,66.7 186.4,66.7 185.6,66.7 184.8,66.7 184,66.7 183.3,66.7 182.5,66.7 
		181.8,66.8 181.1,66.8 180.4,66.9 179.8,67 179.2,67.2 178.6,67.3 177.9,67.5 177.4,67.7 176.8,67.9 176.9,68.2 177.5,68 178,67.8 
		178.6,67.6 179.2,67.5 179.9,67.3 180.5,67.2 181.1,67.1 181.8,67.1 182.5,67 183.3,67 184,67 184.8,67 185.6,67 186.4,67 
		187.3,67 188.1,67 188.1,67 	"/>
	<polygon class="st2" points="196.9,75.4 196.9,75.4 197,74.3 197,73.4 196.8,72.5 196.5,71.6 196.1,70.8 195.6,70.1 195,69.5 
		194.4,68.9 193.6,68.4 192.9,68 192.1,67.6 191.3,67.3 190.4,67.1 189.6,66.9 188.8,66.8 188.1,66.7 188.1,67 188.8,67.1 
		189.6,67.2 190.4,67.4 191.2,67.6 191.9,67.9 192.7,68.3 193.5,68.7 194.2,69.2 194.8,69.7 195.4,70.3 195.9,71 196.2,71.7 
		196.5,72.5 196.7,73.4 196.7,74.3 196.6,75.3 196.6,75.3 	"/>
	<polygon class="st2" points="194.2,88.8 194.2,88.8 196.9,75.4 196.6,75.3 193.9,88.8 193.9,88.8 	"/>
	<polygon class="st0" points="187.9,82.1 187.8,82 187.7,81.9 187.5,81.8 187.3,81.7 187,81.7 186.7,81.7 186.3,81.7 185.9,81.7 
		185.5,81.7 185.1,81.8 184.7,81.8 184.3,81.9 183.9,82 183.6,82 183.3,82.1 183,82.1 182.8,82.2 182.6,82.2 182.4,82.3 182.1,82.4 
		181.8,82.6 181.5,82.7 181.1,82.9 180.8,83.1 180.4,83.4 180.1,83.6 179.8,83.9 179.5,84.3 179.3,84.6 179.1,85 179,85.4 
		178.9,85.8 178.9,86.7 179,87.4 179.2,87.9 179.5,88.3 179.9,88.5 180.3,88.7 180.8,88.8 181.2,88.8 182,88.8 182.7,88.7 
		183.3,88.6 183.9,88.4 184.5,88.2 185,87.9 185.4,87.7 185.8,87.4 186.2,87.1 186.5,86.8 186.8,86.5 187,86.1 187.2,85.8 
		187.3,85.5 187.4,85.2 187.5,84.9 187.6,84.2 187.7,83.5 187.8,82.8 	"/>
	<g>
		<g>
			<polygon class="st2" points="240.3,90.9 240.4,90.4 240.6,89.7 240.9,89.1 241.4,88.5 241.9,88.1 242.5,87.8 243.2,87.6 
				243.9,87.5 244.6,87.6 245.3,87.8 245.9,88.1 246.4,88.5 246.8,89.1 247.2,89.7 247.4,90.4 247.5,90.9 246.7,90.9 246.7,90.5 
				246.5,89.9 246.3,89.4 245.9,89 245.5,88.6 245,88.4 244.5,88.2 243.9,88.1 243.3,88.2 242.7,88.4 242.3,88.6 241.9,89 
				241.5,89.4 241.3,89.9 241.1,90.5 241.1,90.9 			"/>
			<polygon class="st2" points="242.6,90.9 242.6,89.4 244,89.4 244.3,89.4 244.6,89.5 244.8,89.6 245,89.7 245.1,89.8 245.2,90 
				245.3,90.2 245.3,90.3 245.3,90.6 245.2,90.7 245.1,90.9 245.1,90.9 244,90.9 244.1,90.9 244.3,90.9 244.4,90.8 244.6,90.8 
				244.7,90.7 244.7,90.6 244.8,90.5 244.8,90.3 244.8,90.2 244.7,90.1 244.6,90.1 244.6,90 244.4,90 244.3,90 244.2,90 244,90 
				243.3,90 243.3,90.9 			"/>
			<polygon class="st2" points="240.3,90.9 240.3,91.1 240.4,91.8 240.6,92.5 240.9,93.1 241.4,93.6 241.9,94.1 242.5,94.4 
				243.2,94.6 243.9,94.7 244.6,94.6 245.3,94.4 245.9,94.1 246.4,93.6 246.8,93.1 247.2,92.5 247.4,91.8 247.5,91.1 247.5,90.9 
				246.7,90.9 246.7,91.1 246.7,91.7 246.5,92.3 246.3,92.8 245.9,93.2 245.5,93.5 245,93.8 244.5,94 243.9,94.1 243.3,94 
				242.7,93.8 242.3,93.5 241.9,93.2 241.5,92.8 241.3,92.3 241.1,91.7 241.1,91.1 241.1,90.9 			"/>
			<polygon class="st2" points="242.6,90.9 242.6,92.5 243.3,92.5 243.3,91.2 243.9,91.2 244.7,92.5 245.2,92.5 244.4,91.2 
				244.6,91.2 244.8,91.2 244.9,91.1 245,91 245.1,90.9 244,90.9 243.9,91 243.3,91 243.3,90.9 			"/>
		</g>
	</g>
	<g>
		<g>
			<polyline class="st3" points="240.3,91.1 240.3,91.1 240.4,90.4 240.6,89.7 240.9,89.1 241.4,88.5 241.9,88.1 242.5,87.8 
				243.2,87.6 243.9,87.5 243.9,87.5 244.6,87.6 245.3,87.8 245.9,88.1 246.4,88.5 246.8,89.1 247.2,89.7 247.4,90.4 247.5,91.1 
				247.5,91.1 247.4,91.8 247.2,92.5 246.8,93.1 246.4,93.6 245.9,94.1 245.3,94.4 244.6,94.6 243.9,94.7 243.9,94.7 243.2,94.6 
				242.5,94.4 241.9,94.1 241.4,93.6 240.9,93.1 240.6,92.5 240.4,91.8 240.3,91.1 			"/>
		</g>
	</g>
	<g>
		<g>
			<polyline class="st3" points="243.3,92.5 242.6,92.5 242.6,89.4 244,89.4 244,89.4 244.3,89.4 244.6,89.5 244.8,89.6 245,89.7 
				245.1,89.8 245.2,90 245.3,90.2 245.3,90.3 245.3,90.3 245.3,90.6 245.2,90.7 245.1,90.9 245,91 244.9,91.1 244.8,91.2 
				244.6,91.2 244.4,91.2 245.2,92.5 244.7,92.5 243.9,91.2 243.3,91.2 243.3,92.5 			"/>
		</g>
	</g>
	<g>
		<g>
			<polyline class="st3" points="243.9,91 243.9,91 244.1,90.9 244.3,90.9 244.4,90.8 244.6,90.8 244.7,90.7 244.7,90.6 244.8,90.5 
				244.8,90.3 244.8,90.3 244.8,90.2 244.7,90.1 244.6,90.1 244.6,90 244.4,90 244.3,90 244.2,90 244,90 243.3,90 243.3,91 
				243.9,91 			"/>
		</g>
	</g>
	<g>
		<g>
			<polyline class="st3" points="243.9,94.1 243.9,94.1 244.5,94 245,93.8 245.5,93.5 245.9,93.2 246.3,92.8 246.5,92.3 246.7,91.7 
				246.7,91.1 246.7,91.1 246.7,90.5 246.5,89.9 246.3,89.4 245.9,89 245.5,88.6 245,88.4 244.5,88.2 243.9,88.1 243.9,88.1 
				243.3,88.2 242.7,88.4 242.3,88.6 241.9,89 241.5,89.4 241.3,89.9 241.1,90.5 241.1,91.1 241.1,91.1 241.1,91.7 241.3,92.3 
				241.5,92.8 241.9,93.2 242.3,93.5 242.7,93.8 243.3,94 243.9,94.1 			"/>
		</g>
	</g>
	<polygon class="st2" points="195.9,94.4 203.1,94.4 203.1,94.4 205.7,79.9 205.8,79.4 206,78.8 206.1,78.3 206.3,77.7 206.6,77.1 
		206.9,76.6 207.2,76.1 207.6,75.6 208.1,75.2 208.6,74.8 209.2,74.4 209.8,74.1 210.6,73.8 211.4,73.6 212.3,73.5 213.3,73.4 
		213.6,73.4 213.8,73.4 213.9,73.4 213.9,73.4 215,66.9 214.3,66.9 213.6,67 213,67.1 212.4,67.3 211.8,67.5 211.3,67.8 210.8,68.1 
		210.3,68.4 209.8,68.7 209.4,69.1 209,69.5 208.6,69.9 208.2,70.3 207.8,70.8 207.5,71.3 207.1,71.8 207.9,67.2 200.7,67.2 
		195.9,94.4 	"/>
	<g>
		<g>
			<polyline class="st3" points="195.9,94.4 203.1,94.4 203.1,94.4 205.7,79.9 205.7,79.9 205.8,79.4 206,78.8 206.1,78.3 
				206.3,77.7 206.6,77.1 206.9,76.6 207.2,76.1 207.6,75.6 208.1,75.2 208.6,74.8 209.2,74.4 209.8,74.1 210.6,73.8 211.4,73.6 
				212.3,73.5 213.3,73.4 213.3,73.4 213.6,73.4 213.8,73.4 213.9,73.4 213.9,73.4 215,66.9 215,66.9 214.3,66.9 213.6,67 213,67.1 
				212.4,67.3 211.8,67.5 211.3,67.8 210.8,68.1 210.3,68.4 209.8,68.7 209.4,69.1 209,69.5 208.6,69.9 208.2,70.3 207.8,70.8 
				207.5,71.3 207.1,71.8 207.9,67.2 200.7,67.2 195.9,94.4 195.9,94.4 			"/>
		</g>
	</g>
	<polygon class="st2" points="128.5,94.4 135.7,94.4 135.8,94.4 138.3,79.9 138.4,79.4 138.5,78.9 138.6,78.3 138.8,77.8 139,77.3 
		139.3,76.8 139.6,76.4 139.9,75.9 140.3,75.5 140.8,75.2 141.4,74.9 142,74.6 142.7,74.3 143.5,74.1 144.3,74 145.3,73.9 
		145.4,73.9 145.5,74 145.6,74 145.8,74 145.9,74 146,74 146.1,74.1 146.1,74.1 146.1,74 146.2,73.7 146.3,73.2 146.4,72.6 
		146.6,72 146.8,71.3 147,70.6 147.2,69.8 147.4,69.4 147.7,68.9 148,68.4 148.2,68 148.4,67.6 148.6,67.3 148.7,67.1 148.8,67 
		148.8,67 148.7,67 148.5,67 148.4,66.9 148.2,66.9 148,66.9 147.8,66.9 147.6,66.9 146.8,66.9 146.1,67 145.5,67.1 144.8,67.3 
		144.3,67.5 143.7,67.8 143.2,68 142.8,68.3 142.4,68.6 141.9,69 141.6,69.4 141.2,69.8 140.8,70.3 140.4,70.8 140.1,71.3 
		139.7,71.8 140.6,67.2 133.3,67.2 128.5,94.4 	"/>
	<g>
		<g>
			<polyline class="st3" points="128.5,94.4 135.7,94.4 135.8,94.4 138.3,79.9 138.3,79.9 138.4,79.4 138.5,78.9 138.6,78.3 
				138.8,77.8 139,77.3 139.3,76.8 139.6,76.4 139.9,75.9 140.3,75.5 140.8,75.2 141.4,74.9 142,74.6 142.7,74.3 143.5,74.1 
				144.3,74 145.3,73.9 145.3,73.9 145.4,73.9 145.5,74 145.6,74 145.8,74 145.9,74 146,74 146.1,74.1 146.1,74.1 146.1,74.1 
				146.1,74 146.2,73.7 146.3,73.2 146.4,72.6 146.6,72 146.8,71.3 147,70.6 147.2,69.8 147.2,69.8 147.4,69.4 147.7,68.9 148,68.4 
				148.2,68 148.4,67.6 148.6,67.3 148.7,67.1 148.8,67 148.8,67 148.8,67 148.7,67 148.5,67 148.4,66.9 148.2,66.9 148,66.9 
				147.8,66.9 147.6,66.9 147.6,66.9 146.8,66.9 146.1,67 145.5,67.1 144.8,67.3 144.3,67.5 143.7,67.8 143.2,68 142.8,68.3 
				142.4,68.6 141.9,69 141.6,69.4 141.2,69.8 140.8,70.3 140.4,70.8 140.1,71.3 139.7,71.8 140.6,67.2 133.3,67.2 128.5,94.4 
				128.5,94.4 			"/>
		</g>
	</g>
	<g>
		<g>
			<polygon class="st0" points="240.4,121.2 240.4,121.1 240.6,120.5 240.9,119.9 241.4,119.4 241.9,119 242.5,118.6 243.2,118.5 
				243.9,118.4 244.6,118.5 245.3,118.6 245.9,119 246.4,119.4 246.8,119.9 247.2,120.5 247.4,121.1 247.4,121.2 246.7,121.2 
				246.5,120.7 246.3,120.2 245.9,119.8 245.5,119.4 245,119.1 244.5,119 243.9,118.9 243.3,119 242.7,119.1 242.3,119.4 
				241.9,119.8 241.5,120.2 241.3,120.7 241.1,121.2 			"/>
			<polygon class="st0" points="242.6,121.2 242.6,120.3 244,120.3 244.3,120.3 244.6,120.4 244.8,120.4 245,120.5 245.1,120.7 
				245.2,120.8 245.3,121 245.3,121.2 244.8,121.2 244.8,121.1 244.8,121 244.7,120.9 244.6,120.8 244.6,120.8 244.4,120.7 
				244.3,120.7 244.2,120.7 244,120.7 243.3,120.7 243.3,121.2 			"/>
			<polygon class="st0" points="240.3,121.8 240.4,121.2 241.1,121.2 241.1,121.2 241.1,121.8 			"/>
			<polygon class="st0" points="242.6,121.8 242.6,121.2 243.3,121.2 243.3,121.7 243.9,121.7 244.1,121.7 244.3,121.7 244.4,121.6 
				244.6,121.6 244.7,121.5 244.7,121.4 244.8,121.3 244.8,121.2 245.3,121.2 245.3,121.2 245.3,121.4 245.2,121.6 245.1,121.7 
				245,121.8 			"/>
			<polygon class="st0" points="246.7,121.8 246.7,121.2 246.7,121.2 247.4,121.2 247.5,121.8 			"/>
			<polygon class="st0" points="240.3,121.8 240.3,121.9 240.4,122.6 240.6,123.3 240.9,123.9 241.4,124.4 241.9,124.9 242.5,125.2 
				243.2,125.4 243.9,125.4 244.6,125.4 245.3,125.2 245.9,124.9 246.4,124.4 246.8,123.9 247.2,123.3 247.4,122.6 247.5,121.9 
				247.5,121.8 246.7,121.8 246.7,121.9 246.7,122.5 246.5,123 246.3,123.5 245.9,123.9 245.5,124.3 245,124.6 244.5,124.8 
				243.9,124.8 243.3,124.8 242.7,124.6 242.3,124.3 241.9,123.9 241.5,123.5 241.3,123 241.1,122.5 241.1,121.9 241.1,121.8 			"/>
			<polygon class="st0" points="242.6,121.8 242.6,123.3 243.3,123.3 243.3,122 243.9,122 244.7,123.3 245.2,123.3 244.4,122 
				244.6,122 244.8,121.9 244.9,121.9 245,121.8 245,121.8 			"/>
		</g>
	</g>
</g>
</svg>
