<?xml version="1.0" encoding="utf-8"?>
<!-- Generator: Adobe Illustrator 19.2.0, SVG Export Plug-In . SVG Version: 6.00 Build 0)  -->
<svg version="1.1" id="Visa_Logo" xmlns="http://www.w3.org/2000/svg" xmlns:xlink="http://www.w3.org/1999/xlink" x="0px" y="0px"
	 viewBox="0 0 216 69.8" style="enable-background:new 0 0 216 69.8;" xml:space="preserve">
<style type="text/css">
	.Arched_x0020_Green{fill:url(#SVGID_1_);stroke:#FFFFFF;stroke-width:0.25;stroke-miterlimit:1;}
	.st0{fill:url(#SVGID_2_);}
</style>
<linearGradient id="SVGID_1_" gradientUnits="userSpaceOnUse" x1="-281.1914" y1="382.5103" x2="-280.4843" y2="381.8032">
	<stop  offset="0" style="stop-color:#24AB4B"/>
	<stop  offset="0.9831" style="stop-color:#1E371F"/>
</linearGradient>
<linearGradient id="SVGID_2_" gradientUnits="userSpaceOnUse" x1="0" y1="34.8791" x2="216" y2="34.8791">
	<stop  offset="0" style="stop-color:#231F5C"/>
	<stop  offset="1" style="stop-color:#034EA2"/>
</linearGradient>
<path class="st0" d="M82,1.2L53.7,68.7H35.3L21.4,14.9c-0.8-3.3-1.6-4.5-4.1-5.9C13,6.7,6.1,4.5,0,3.2l0.4-2h29.7
	c3.8,0,7.2,2.5,8,6.9l7.4,39L63.7,1.2H82z M154.3,46.7c0.1-17.8-24.6-18.8-24.5-26.7c0.1-2.4,2.4-5,7.4-5.7c2.5-0.3,9.4-0.6,17.2,3
	L157.5,3c-4.2-1.5-9.6-3-16.3-3c-17.3,0-29.4,9.2-29.5,22.3c-0.1,9.7,8.7,15.1,15.3,18.4c6.8,3.3,9.1,5.4,9.1,8.4
	c-0.1,4.5-5.4,6.5-10.4,6.6c-8.8,0.1-13.9-2.4-17.9-4.3l-3.2,14.8c4.1,1.9,11.6,3.5,19.4,3.6C142.3,69.8,154.2,60.7,154.3,46.7
	 M199.9,68.7H216L201.9,1.2H187c-3.4,0-6.2,1.9-7.4,4.9l-26.2,62.5h18.3l3.6-10.1h22.4L199.9,68.7z M180.4,44.8l9.2-25.3l5.3,25.3
	H180.4z M106.9,1.2L92.5,68.7H75.1L89.5,1.2H106.9z"/>
</svg>
